<svg width="48" height="48" viewBox="0 0 48 48" fill="none" xmlns="http://www.w3.org/2000/svg">
<rect x="0.769231" y="0.769322" width="46.4615" height="46.4615" rx="3.23077" fill="#F1F3F7" stroke="#6D758F" stroke-width="1.53846"/>
<mask id="mask0_4940_34381" style="mask-type:alpha" maskUnits="userSpaceOnUse" x="1" y="1" width="46" height="46">
<rect x="1.68079" y="1.84975" width="44.6131" height="44.6024" rx="4" fill="#E3EFFF"/>
</mask>
<g mask="url(#mask0_4940_34381)">
<line x1="32.8205" y1="0.000137307" x2="32.8205" y2="50.0482" stroke="#B4B9C9" stroke-width="1.02564"/>
<line x1="41.1282" y1="0.000137307" x2="41.1282" y2="50.0482" stroke="#B4B9C9" stroke-width="1.02564"/>
<line x1="24.5128" y1="0.000137307" x2="24.5128" y2="50.0482" stroke="#B4B9C9" stroke-width="1.02564"/>
<line x1="7.8974" y1="0.000137307" x2="7.89741" y2="50.0482" stroke="#B4B9C9" stroke-width="1.02564"/>
<line x1="16.2051" y1="0.000137307" x2="16.2051" y2="50.0482" stroke="#B4B9C9" stroke-width="1.02564"/>
<line x1="-1.02405" y1="16.2036" x2="49.024" y2="16.2036" stroke="#B4B9C9" stroke-width="1.02564"/>
<line x1="-1.02405" y1="7.89592" x2="49.024" y2="7.89591" stroke="#B4B9C9" stroke-width="1.02564"/>
<line x1="-1.02405" y1="24.5113" x2="49.024" y2="24.5113" stroke="#B4B9C9" stroke-width="1.02564"/>
<line x1="-1.02405" y1="41.1267" x2="49.024" y2="41.1267" stroke="#B4B9C9" stroke-width="1.02564"/>
<line x1="-1.02405" y1="32.8191" x2="49.024" y2="32.8191" stroke="#B4B9C9" stroke-width="1.02564"/>
<rect x="1.41193" y="1.53473" width="45.0024" height="44.9916" rx="4" fill="url(#paint0_radial_4940_34381)"/>
</g>
<g filter="url(#filter0_d_4940_34381)">
<path d="M13.5 26.8966C13.5 29.4961 15.6073 31.6035 18.2069 31.6035H29.7931C32.3926 31.6035 34.5 29.4961 34.5 26.8966C34.5 24.4156 32.5805 22.3829 30.1455 22.2028C29.9644 18.9657 27.2822 16.3966 24 16.3966C20.7177 16.3966 18.0355 18.9657 17.8546 22.2028C15.4196 22.3829 13.5 24.4156 13.5 26.8966Z" fill="white"/>
<path d="M13.5 26.8966C13.5 29.4961 15.6073 31.6035 18.2069 31.6035H29.7931C32.3926 31.6035 34.5 29.4961 34.5 26.8966C34.5 24.4156 32.5805 22.3829 30.1455 22.2028C29.9644 18.9657 27.2822 16.3966 24 16.3966C20.7177 16.3966 18.0355 18.9657 17.8546 22.2028C15.4196 22.3829 13.5 24.4156 13.5 26.8966Z" stroke="#6D758F" stroke-width="1.5" stroke-linecap="round" stroke-linejoin="round"/>
</g>
<defs>
<filter id="filter0_d_4940_34381" x="8.75" y="12.6466" width="30.5" height="24.7069" filterUnits="userSpaceOnUse" color-interpolation-filters="sRGB">
<feFlood flood-opacity="0" result="BackgroundImageFix"/>
<feColorMatrix in="SourceAlpha" type="matrix" values="0 0 0 0 0 0 0 0 0 0 0 0 0 0 0 0 0 0 127 0" result="hardAlpha"/>
<feOffset dy="1"/>
<feGaussianBlur stdDeviation="2"/>
<feComposite in2="hardAlpha" operator="out"/>
<feColorMatrix type="matrix" values="0 0 0 0 0.0969792 0 0 0 0 0.127894 0 0 0 0 0.2375 0 0 0 0.08 0"/>
<feBlend mode="normal" in2="BackgroundImageFix" result="effect1_dropShadow_4940_34381"/>
<feBlend mode="normal" in="SourceGraphic" in2="effect1_dropShadow_4940_34381" result="shape"/>
</filter>
<radialGradient id="paint0_radial_4940_34381" cx="0" cy="0" r="1" gradientUnits="userSpaceOnUse" gradientTransform="translate(23.9131 24.0305) rotate(90) scale(22.4958 22.5012)">
<stop stop-color="#F6FAFD" stop-opacity="0.28"/>
<stop offset="1" stop-color="#F6FAFD"/>
</radialGradient>
</defs>
</svg>
