<svg width="56" height="56" viewBox="0 0 56 56" fill="none" xmlns="http://www.w3.org/2000/svg">
<g filter="url(#filter0_d_4940_34371)">
<rect x="4" y="3.00009" width="48" height="48" rx="4" fill="#F1F3F7"/>
<rect x="4.76923" y="3.76932" width="46.4615" height="46.4615" rx="3.23077" stroke="#6D758F" stroke-width="1.53846"/>
</g>
<mask id="mask0_4940_34371" style="mask-type:alpha" maskUnits="userSpaceOnUse" x="5" y="4" width="46" height="46">
<rect x="5.6808" y="4.84975" width="44.6131" height="44.6024" rx="4" fill="#E3EFFF"/>
</mask>
<g mask="url(#mask0_4940_34371)">
<line x1="36.8205" y1="3.00014" x2="36.8205" y2="53.0482" stroke="#B4B9C9" stroke-width="1.02564"/>
<line x1="45.1282" y1="3.00014" x2="45.1282" y2="53.0482" stroke="#B4B9C9" stroke-width="1.02564"/>
<line x1="28.5128" y1="3.00014" x2="28.5128" y2="53.0482" stroke="#B4B9C9" stroke-width="1.02564"/>
<line x1="11.8974" y1="3.00014" x2="11.8974" y2="53.0482" stroke="#B4B9C9" stroke-width="1.02564"/>
<line x1="20.2051" y1="3.00014" x2="20.2051" y2="53.0482" stroke="#B4B9C9" stroke-width="1.02564"/>
<line x1="2.97598" y1="19.2036" x2="53.0241" y2="19.2036" stroke="#B4B9C9" stroke-width="1.02564"/>
<line x1="2.97598" y1="10.8959" x2="53.0241" y2="10.8959" stroke="#B4B9C9" stroke-width="1.02564"/>
<line x1="2.97598" y1="27.5113" x2="53.0241" y2="27.5113" stroke="#B4B9C9" stroke-width="1.02564"/>
<line x1="2.97597" y1="44.1267" x2="53.024" y2="44.1267" stroke="#B4B9C9" stroke-width="1.02564"/>
<line x1="2.97598" y1="35.8191" x2="53.0241" y2="35.8191" stroke="#B4B9C9" stroke-width="1.02564"/>
<rect x="5.41193" y="4.53473" width="45.0024" height="44.9916" rx="4" fill="url(#paint0_radial_4940_34371)"/>
</g>
<g filter="url(#filter1_d_4940_34371)">
<path d="M19.6724 30.2587C19.6724 30.2587 17.5 29.8966 17.5 27.0001C17.5 24.5191 19.4196 22.4864 21.8546 22.3062C22.0355 19.0692 24.7177 16.5001 28 16.5001C31.2822 16.5001 33.9644 19.0692 34.1455 22.3062C36.5805 22.4864 38.5 24.5191 38.5 27.0001C38.5 29.8966 36.3276 30.2587 36.3276 30.2587" fill="white"/>
<path d="M19.6724 30.2587C19.6724 30.2587 17.5 29.8966 17.5 27.0001C17.5 24.5191 19.4196 22.4864 21.8546 22.3062C22.0355 19.0692 24.7177 16.5001 28 16.5001C31.2822 16.5001 33.9644 19.0692 34.1455 22.3062C36.5805 22.4864 38.5 24.5191 38.5 27.0001C38.5 29.8966 36.3276 30.2587 36.3276 30.2587" stroke="#6D758F" stroke-width="1.23077" stroke-linecap="round" stroke-linejoin="round"/>
<path d="M31.2586 33.8794L28 37.5001L24.7413 33.8794" stroke="#6D758F" stroke-width="1.23077" stroke-linecap="round" stroke-linejoin="round"/>
<path d="M28 36.0518V28.0863" stroke="#6D758F" stroke-width="1.23077" stroke-linecap="round" stroke-linejoin="round"/>
</g>
<defs>
<filter id="filter0_d_4940_34371" x="0" y="9.15527e-05" width="56" height="56" filterUnits="userSpaceOnUse" color-interpolation-filters="sRGB">
<feFlood flood-opacity="0" result="BackgroundImageFix"/>
<feColorMatrix in="SourceAlpha" type="matrix" values="0 0 0 0 0 0 0 0 0 0 0 0 0 0 0 0 0 0 127 0" result="hardAlpha"/>
<feOffset dy="1"/>
<feGaussianBlur stdDeviation="2"/>
<feComposite in2="hardAlpha" operator="out"/>
<feColorMatrix type="matrix" values="0 0 0 0 0.305882 0 0 0 0 0.623529 0 0 0 0 1 0 0 0 0.2 0"/>
<feBlend mode="normal" in2="BackgroundImageFix" result="effect1_dropShadow_4940_34371"/>
<feBlend mode="normal" in="SourceGraphic" in2="effect1_dropShadow_4940_34371" result="shape"/>
</filter>
<filter id="filter1_d_4940_34371" x="12.8846" y="12.8847" width="30.2308" height="30.2308" filterUnits="userSpaceOnUse" color-interpolation-filters="sRGB">
<feFlood flood-opacity="0" result="BackgroundImageFix"/>
<feColorMatrix in="SourceAlpha" type="matrix" values="0 0 0 0 0 0 0 0 0 0 0 0 0 0 0 0 0 0 127 0" result="hardAlpha"/>
<feOffset dy="1"/>
<feGaussianBlur stdDeviation="2"/>
<feComposite in2="hardAlpha" operator="out"/>
<feColorMatrix type="matrix" values="0 0 0 0 0.0969792 0 0 0 0 0.127894 0 0 0 0 0.2375 0 0 0 0.08 0"/>
<feBlend mode="normal" in2="BackgroundImageFix" result="effect1_dropShadow_4940_34371"/>
<feBlend mode="normal" in="SourceGraphic" in2="effect1_dropShadow_4940_34371" result="shape"/>
</filter>
<radialGradient id="paint0_radial_4940_34371" cx="0" cy="0" r="1" gradientUnits="userSpaceOnUse" gradientTransform="translate(27.9131 27.0305) rotate(90) scale(22.4958 22.5012)">
<stop stop-color="#F6FAFD" stop-opacity="0.28"/>
<stop offset="1" stop-color="#F6FAFD"/>
</radialGradient>
</defs>
</svg>
