<svg width="56" height="56" viewBox="0 0 56 56" fill="none" xmlns="http://www.w3.org/2000/svg">
<g filter="url(#filter0_d_4940_34372)">
<rect x="4" y="3.00009" width="48" height="48" rx="4" fill="#F1F3F7"/>
<rect x="4.76923" y="3.76932" width="46.4615" height="46.4615" rx="3.23077" stroke="#6D758F" stroke-width="1.53846"/>
</g>
<mask id="mask0_4940_34372" style="mask-type:alpha" maskUnits="userSpaceOnUse" x="5" y="4" width="46" height="46">
<rect x="5.6808" y="4.84975" width="44.6131" height="44.6024" rx="4" fill="#E3EFFF"/>
</mask>
<g mask="url(#mask0_4940_34372)">
<line x1="36.8205" y1="3.00014" x2="36.8205" y2="53.0482" stroke="#B4B9C9" stroke-width="1.02564"/>
<line x1="45.1282" y1="3.00014" x2="45.1282" y2="53.0482" stroke="#B4B9C9" stroke-width="1.02564"/>
<line x1="28.5128" y1="3.00014" x2="28.5128" y2="53.0482" stroke="#B4B9C9" stroke-width="1.02564"/>
<line x1="11.8974" y1="3.00014" x2="11.8974" y2="53.0482" stroke="#B4B9C9" stroke-width="1.02564"/>
<line x1="20.2051" y1="3.00014" x2="20.2051" y2="53.0482" stroke="#B4B9C9" stroke-width="1.02564"/>
<line x1="2.97598" y1="19.2036" x2="53.0241" y2="19.2036" stroke="#B4B9C9" stroke-width="1.02564"/>
<line x1="2.97598" y1="10.8959" x2="53.0241" y2="10.8959" stroke="#B4B9C9" stroke-width="1.02564"/>
<line x1="2.97598" y1="27.5113" x2="53.0241" y2="27.5113" stroke="#B4B9C9" stroke-width="1.02564"/>
<line x1="2.97597" y1="44.1267" x2="53.024" y2="44.1267" stroke="#B4B9C9" stroke-width="1.02564"/>
<line x1="2.97598" y1="35.8191" x2="53.0241" y2="35.8191" stroke="#B4B9C9" stroke-width="1.02564"/>
<rect x="5.41188" y="4.53473" width="45.0024" height="44.9916" rx="4" fill="url(#paint0_radial_4940_34372)"/>
</g>
<g filter="url(#filter1_d_4940_34372)">
<path fill-rule="evenodd" clip-rule="evenodd" d="M27.9921 19.439C25.6929 16.8642 21.8587 16.1716 18.9779 18.5293C16.0971 20.887 15.6915 24.8289 17.9538 27.6175L27.9921 36.9139L38.0304 27.6175C40.2928 24.8289 39.9367 20.8622 37.0063 18.5293C34.076 16.1964 30.2914 16.8642 27.9921 19.439Z" fill="white"/>
<path d="M28 36.7102V20.2438C28 19.5985 28.2328 18.9592 28.7569 18.5827C31.215 16.8172 35.9619 16.1866 38.3291 19.7525C40.3343 22.7729 39.3279 25.7712 38.4673 27.0803C38.3788 27.215 38.2692 27.3328 38.1501 27.4416L28 36.7102Z" fill="#B4B9C9"/>
<path fill-rule="evenodd" clip-rule="evenodd" d="M27.9921 19.439C25.6929 16.8642 21.8587 16.1716 18.9779 18.5293C16.0971 20.887 15.6915 24.8289 17.9538 27.6175L27.9921 36.9139L38.0304 27.6175C40.2928 24.8289 39.9367 20.8622 37.0063 18.5293C34.076 16.1964 30.2914 16.8642 27.9921 19.439Z" stroke="#6D758F" stroke-width="1.23077" stroke-linecap="round" stroke-linejoin="round"/>
</g>
<defs>
<filter id="filter0_d_4940_34372" x="0" y="9.15527e-05" width="56" height="56" filterUnits="userSpaceOnUse" color-interpolation-filters="sRGB">
<feFlood flood-opacity="0" result="BackgroundImageFix"/>
<feColorMatrix in="SourceAlpha" type="matrix" values="0 0 0 0 0 0 0 0 0 0 0 0 0 0 0 0 0 0 127 0" result="hardAlpha"/>
<feOffset dy="1"/>
<feGaussianBlur stdDeviation="2"/>
<feComposite in2="hardAlpha" operator="out"/>
<feColorMatrix type="matrix" values="0 0 0 0 0.305882 0 0 0 0 0.623529 0 0 0 0 1 0 0 0 0.2 0"/>
<feBlend mode="normal" in2="BackgroundImageFix" result="effect1_dropShadow_4940_34372"/>
<feBlend mode="normal" in="SourceGraphic" in2="effect1_dropShadow_4940_34372" result="shape"/>
</filter>
<filter id="filter1_d_4940_34372" x="11.8845" y="13.47" width="32.2309" height="29.0593" filterUnits="userSpaceOnUse" color-interpolation-filters="sRGB">
<feFlood flood-opacity="0" result="BackgroundImageFix"/>
<feColorMatrix in="SourceAlpha" type="matrix" values="0 0 0 0 0 0 0 0 0 0 0 0 0 0 0 0 0 0 127 0" result="hardAlpha"/>
<feOffset dy="1"/>
<feGaussianBlur stdDeviation="2"/>
<feComposite in2="hardAlpha" operator="out"/>
<feColorMatrix type="matrix" values="0 0 0 0 0.0969792 0 0 0 0 0.127894 0 0 0 0 0.2375 0 0 0 0.08 0"/>
<feBlend mode="normal" in2="BackgroundImageFix" result="effect1_dropShadow_4940_34372"/>
<feBlend mode="normal" in="SourceGraphic" in2="effect1_dropShadow_4940_34372" result="shape"/>
</filter>
<radialGradient id="paint0_radial_4940_34372" cx="0" cy="0" r="1" gradientUnits="userSpaceOnUse" gradientTransform="translate(27.9131 27.0305) rotate(90) scale(22.4958 22.5012)">
<stop stop-color="#F6FAFD" stop-opacity="0.28"/>
<stop offset="1" stop-color="#F6FAFD"/>
</radialGradient>
</defs>
</svg>
