<svg width="48" height="48" viewBox="0 0 48 48" fill="none" xmlns="http://www.w3.org/2000/svg">
<rect x="0.769231" y="0.769322" width="46.4615" height="46.4615" rx="3.23077" fill="#F1F3F7" stroke="#6D758F" stroke-width="1.53846"/>
<mask id="mask0_5092_62781" style="mask-type:alpha" maskUnits="userSpaceOnUse" x="1" y="1" width="46" height="46">
<rect x="1.6808" y="1.84976" width="44.6131" height="44.6024" rx="2" fill="#E1E4ED"/>
</mask>
<g mask="url(#mask0_5092_62781)">
<line x1="32.8077" y1="0.000152566" x2="32.8077" y2="50.0482" stroke="#B4B9C9"/>
<line x1="41.1154" y1="0.000152566" x2="41.1154" y2="50.0482" stroke="#B4B9C9"/>
<line x1="24.5" y1="0.000152566" x2="24.5" y2="50.0482" stroke="#B4B9C9"/>
<line x1="7.88462" y1="0.000152566" x2="7.88462" y2="50.0482" stroke="#B4B9C9"/>
<line x1="16.1923" y1="0.000152566" x2="16.1923" y2="50.0482" stroke="#B4B9C9"/>
<line x1="-1.024" y1="16.2165" x2="49.0241" y2="16.2165" stroke="#B4B9C9"/>
<line x1="-1.024" y1="7.90872" x2="49.0241" y2="7.90872" stroke="#B4B9C9"/>
<line x1="-1.024" y1="24.5242" x2="49.0241" y2="24.5242" stroke="#B4B9C9"/>
<line x1="-1.02402" y1="41.1395" x2="49.0241" y2="41.1395" stroke="#B4B9C9"/>
<line x1="-1.024" y1="32.8319" x2="49.0241" y2="32.8319" stroke="#B4B9C9"/>
<rect x="0.75209" y="0.875092" width="46.322" height="46.3109" rx="3" fill="url(#paint0_radial_5092_62781)"/>
<g filter="url(#filter0_d_5092_62781)">
<rect x="13.7393" y="16.1887" width="20.3778" height="18.0419" fill="white"/>
<path d="M12.8015 30.3295L17.0434 24.9336C18.2462 23.4035 20.5471 23.3535 21.8153 24.8298L25.5447 29.171M22.3241 25.4222C23.9262 23.3844 26.1584 20.4972 26.3037 20.3094C26.3088 20.3027 26.3138 20.2963 26.319 20.2897C27.5241 18.7695 29.8176 18.7228 31.0831 20.1959L34.8124 24.5371M15.8908 35.3495H32.1093C33.8155 35.3495 35.1986 33.9664 35.1986 32.2602V16.0417C35.1986 14.3355 33.8155 12.9524 32.1093 12.9524H15.8908C14.1846 12.9524 12.8015 14.3355 12.8015 16.0417V32.2602C12.8015 33.9664 14.1846 35.3495 15.8908 35.3495Z" fill="white"/>
<path d="M12.8015 30.3295L17.0434 24.9336C18.2462 23.4035 20.5471 23.3535 21.8153 24.8298L25.5447 29.171M22.3241 25.4222C23.9262 23.3844 26.1584 20.4972 26.3037 20.3094C26.3088 20.3027 26.3138 20.2963 26.319 20.2897C27.5241 18.7695 29.8176 18.7228 31.0831 20.1959L34.8124 24.5371M15.8908 35.3495H32.1093C33.8155 35.3495 35.1986 33.9664 35.1986 32.2602V16.0417C35.1986 14.3355 33.8155 12.9524 32.1093 12.9524H15.8908C14.1846 12.9524 12.8015 14.3355 12.8015 16.0417V32.2602C12.8015 33.9664 14.1846 35.3495 15.8908 35.3495Z" stroke="#6D758F" stroke-width="1.23077" stroke-linecap="round" stroke-linejoin="round"/>
<path d="M32.6158 34.7284H15.7569H15.3598C14.2552 34.7284 13.3598 33.833 13.3598 32.7284V31.2218C13.3598 30.7639 13.5169 30.3199 13.805 29.9639L17.9255 24.8708C18.7107 23.9002 20.1834 23.8784 20.9972 24.8252L25.0845 29.5811C25.2359 29.7573 25.4742 29.8326 25.6994 29.7753C26.1415 29.663 26.3098 29.124 26.0102 28.7801L23.0951 25.4334L27.1288 20.2426C27.8988 19.2517 29.3804 19.2065 30.2094 20.1484L34.6158 25.1552V32.7284C34.6158 33.833 33.7204 34.7284 32.6158 34.7284Z" fill="#E1E4ED"/>
</g>
</g>
<defs>
<filter id="filter0_d_5092_62781" x="8.18612" y="9.33704" width="31.6279" height="31.6278" filterUnits="userSpaceOnUse" color-interpolation-filters="sRGB">
<feFlood flood-opacity="0" result="BackgroundImageFix"/>
<feColorMatrix in="SourceAlpha" type="matrix" values="0 0 0 0 0 0 0 0 0 0 0 0 0 0 0 0 0 0 127 0" result="hardAlpha"/>
<feOffset dy="1"/>
<feGaussianBlur stdDeviation="2"/>
<feComposite in2="hardAlpha" operator="out"/>
<feColorMatrix type="matrix" values="0 0 0 0 0.0969792 0 0 0 0 0.127894 0 0 0 0 0.2375 0 0 0 0.08 0"/>
<feBlend mode="normal" in2="BackgroundImageFix" result="effect1_dropShadow_5092_62781"/>
<feBlend mode="normal" in="SourceGraphic" in2="effect1_dropShadow_5092_62781" result="shape"/>
</filter>
<radialGradient id="paint0_radial_5092_62781" cx="0" cy="0" r="1" gradientUnits="userSpaceOnUse" gradientTransform="translate(23.9131 24.0305) rotate(90) scale(23.1555 23.161)">
<stop stop-color="#F6FAFD" stop-opacity="0.28"/>
<stop offset="1" stop-color="#F6FAFD"/>
</radialGradient>
</defs>
</svg>
