<svg  viewBox="0 0 56 56" fill="none" xmlns="http://www.w3.org/2000/svg">
<g filter="url(#filter0_d_5110_50921)">
<rect x="4" y="3.00009" width="48" height="48" rx="4" fill="#F1F3F7"/>
<rect x="4.76923" y="3.76932" width="46.4615" height="46.4615" rx="3.23077" stroke="#6D758F" stroke-width="1.53846"/>
</g>
<mask id="mask0_5110_50921" style="mask-type:alpha" maskUnits="userSpaceOnUse" x="5" y="4" width="46" height="46">
<rect x="5.68081" y="4.84976" width="44.6131" height="44.6024" rx="2" fill="#F1F4FF"/>
</mask>
<g mask="url(#mask0_5110_50921)">
<line x1="36.8077" y1="3.00015" x2="36.8077" y2="53.0482" stroke="#B4B9C9"/>
<line x1="45.1154" y1="3.00015" x2="45.1154" y2="53.0482" stroke="#B4B9C9"/>
<line x1="28.5" y1="3.00015" x2="28.5" y2="53.0482" stroke="#B4B9C9"/>
<line x1="11.8846" y1="3.00015" x2="11.8846" y2="53.0482" stroke="#B4B9C9"/>
<line x1="20.1923" y1="3.00015" x2="20.1923" y2="53.0482" stroke="#B4B9C9"/>
<line x1="2.97598" y1="19.2165" x2="53.0241" y2="19.2165" stroke="#B4B9C9"/>
<line x1="2.97598" y1="10.9087" x2="53.0241" y2="10.9087" stroke="#B4B9C9"/>
<line x1="2.97598" y1="27.5242" x2="53.0241" y2="27.5242" stroke="#B4B9C9"/>
<line x1="2.97597" y1="44.1395" x2="53.024" y2="44.1395" stroke="#B4B9C9"/>
<line x1="2.97598" y1="35.8319" x2="53.0241" y2="35.8319" stroke="#B4B9C9"/>
<rect x="5.41188" y="4.53473" width="45.0024" height="44.9916" rx="2" fill="url(#paint0_radial_5110_50921)"/>
<path d="M20.641 17.9863C24.7053 13.9221 31.2947 13.9221 35.359 17.9863C39.4232 22.0506 39.4232 28.64 35.359 32.7043L28.3074 39.7559C28.1376 39.9256 27.8624 39.9256 27.6926 39.7559L20.641 32.7043C16.5768 28.6401 16.5768 22.0506 20.641 17.9863Z" fill="white" stroke="#6D758F" stroke-width="1.23"/>
<circle cx="28.1875" cy="25.2188" r="3.53125" fill="#B4B9C9" stroke="#6D758F"/>
</g>
<defs>
<filter id="filter0_d_5110_50921" x="0" y="9.15527e-05" width="56" height="56" filterUnits="userSpaceOnUse" color-interpolation-filters="sRGB">
<feFlood flood-opacity="0" result="BackgroundImageFix"/>
<feColorMatrix in="SourceAlpha" type="matrix" values="0 0 0 0 0 0 0 0 0 0 0 0 0 0 0 0 0 0 127 0" result="hardAlpha"/>
<feOffset dy="1"/>
<feGaussianBlur stdDeviation="2"/>
<feComposite in2="hardAlpha" operator="out"/>
<feColorMatrix type="matrix" values="0 0 0 0 0.305882 0 0 0 0 0.623529 0 0 0 0 1 0 0 0 0.2 0"/>
<feBlend mode="normal" in2="BackgroundImageFix" result="effect1_dropShadow_5110_50921"/>
<feBlend mode="normal" in="SourceGraphic" in2="effect1_dropShadow_5110_50921" result="shape"/>
</filter>
<radialGradient id="paint0_radial_5110_50921" cx="0" cy="0" r="1" gradientUnits="userSpaceOnUse" gradientTransform="translate(27.9131 27.0305) rotate(90) scale(22.4958 22.5012)">
<stop stop-color="#F6FAFD" stop-opacity="0.28"/>
<stop offset="1" stop-color="#F6FAFD"/>
</radialGradient>
</defs>
</svg>
