<svg width="48" height="48" viewBox="0 0 48 48" fill="none" xmlns="http://www.w3.org/2000/svg">
<rect x="0.769231" y="0.769322" width="46.4615" height="46.4615" rx="3.23077" fill="#F1F3F7" stroke="#6D758F" stroke-width="1.53846"/>
<mask id="mask0_4940_34382" style="mask-type:alpha" maskUnits="userSpaceOnUse" x="1" y="1" width="46" height="46">
<rect x="1.68079" y="1.84975" width="44.6131" height="44.6024" rx="4" fill="#E3EFFF"/>
</mask>
<g mask="url(#mask0_4940_34382)">
<line x1="32.8205" y1="0.000137307" x2="32.8205" y2="50.0482" stroke="#B4B9C9" stroke-width="1.02564"/>
<line x1="41.1282" y1="0.000137307" x2="41.1282" y2="50.0482" stroke="#B4B9C9" stroke-width="1.02564"/>
<line x1="24.5128" y1="0.000137307" x2="24.5128" y2="50.0482" stroke="#B4B9C9" stroke-width="1.02564"/>
<line x1="7.8974" y1="0.000137307" x2="7.89741" y2="50.0482" stroke="#B4B9C9" stroke-width="1.02564"/>
<line x1="16.2051" y1="0.000137307" x2="16.2051" y2="50.0482" stroke="#B4B9C9" stroke-width="1.02564"/>
<line x1="-1.02405" y1="16.2036" x2="49.024" y2="16.2036" stroke="#B4B9C9" stroke-width="1.02564"/>
<line x1="-1.02405" y1="7.89592" x2="49.024" y2="7.89591" stroke="#B4B9C9" stroke-width="1.02564"/>
<line x1="-1.02405" y1="24.5113" x2="49.024" y2="24.5113" stroke="#B4B9C9" stroke-width="1.02564"/>
<line x1="-1.02405" y1="41.1267" x2="49.024" y2="41.1267" stroke="#B4B9C9" stroke-width="1.02564"/>
<line x1="-1.02405" y1="32.8191" x2="49.024" y2="32.8191" stroke="#B4B9C9" stroke-width="1.02564"/>
<rect x="1.41193" y="1.53473" width="45.0024" height="44.9916" rx="4" fill="url(#paint0_radial_4940_34382)"/>
</g>
<g filter="url(#filter0_d_4940_34382)">
<path d="M15.1266 23.8521C15.1266 23.068 15.7623 22.4324 16.5464 22.4324H31.4536C32.2377 22.4324 32.8733 23.068 32.8733 23.8521V31.6606C32.8733 33.2289 31.6021 34.5001 30.0339 34.5001H17.9661C16.3979 34.5001 15.1266 33.2289 15.1266 31.6606V23.8521Z" fill="white" stroke="#6D758F" stroke-width="1.23077" stroke-linecap="round" stroke-linejoin="round"/>
<path d="M17.9661 21.6636V21.4402C17.9661 19.2237 17.8327 16.7531 19.3808 15.1667C20.2636 14.2621 21.6922 13.5001 23.9999 13.5001C26.3077 13.5001 27.7363 14.2621 28.619 15.1667C30.1671 16.7531 30.0338 19.2237 30.0338 21.4402V21.6636" fill="#B4B9C9"/>
<path d="M17.9661 21.6636V21.4402C17.9661 19.2237 17.8327 16.7531 19.3808 15.1667C20.2636 14.2621 21.6922 13.5001 23.9999 13.5001C26.3077 13.5001 27.7363 14.2621 28.619 15.1667C30.1671 16.7531 30.0338 19.2237 30.0338 21.4402V21.6636" stroke="#6D758F" stroke-width="1.23077" stroke-linecap="round" stroke-linejoin="round"/>
</g>
<defs>
<filter id="filter0_d_4940_34382" x="10.5113" y="9.8847" width="26.9774" height="30.2308" filterUnits="userSpaceOnUse" color-interpolation-filters="sRGB">
<feFlood flood-opacity="0" result="BackgroundImageFix"/>
<feColorMatrix in="SourceAlpha" type="matrix" values="0 0 0 0 0 0 0 0 0 0 0 0 0 0 0 0 0 0 127 0" result="hardAlpha"/>
<feOffset dy="1"/>
<feGaussianBlur stdDeviation="2"/>
<feComposite in2="hardAlpha" operator="out"/>
<feColorMatrix type="matrix" values="0 0 0 0 0.0969792 0 0 0 0 0.127894 0 0 0 0 0.2375 0 0 0 0.08 0"/>
<feBlend mode="normal" in2="BackgroundImageFix" result="effect1_dropShadow_4940_34382"/>
<feBlend mode="normal" in="SourceGraphic" in2="effect1_dropShadow_4940_34382" result="shape"/>
</filter>
<radialGradient id="paint0_radial_4940_34382" cx="0" cy="0" r="1" gradientUnits="userSpaceOnUse" gradientTransform="translate(23.9131 24.0305) rotate(90) scale(22.4958 22.5012)">
<stop stop-color="#F6FAFD" stop-opacity="0.28"/>
<stop offset="1" stop-color="#F6FAFD"/>
</radialGradient>
</defs>
</svg>
