<svg width="60" height="60" viewBox="0 0 60 60" fill="none" xmlns="http://www.w3.org/2000/svg">
<g clip-path="url(#clip0_433_73714)">
<path d="M29.8808 53.5502L25.2181 49.3253H3.06428L-0.142822 53.5502H29.8808Z" fill="#001F63"/>
<path d="M59.8572 53.5502L56.1767 49.3253H34.5436L29.8809 53.5502H59.8572Z" fill="#001F63"/>
<path d="M24.3898 53.562C24.7093 56.2957 27.0288 58.4141 29.8572 58.4141C32.6738 58.4141 35.0052 56.2957 35.3247 53.562H24.3898Z" fill="#001F63"/>
<path d="M45.727 1.58569H13.656V19.4437L18.6028 21.7277V6.56794L40.7684 6.57978V22.6863L45.727 20.4023V1.58569Z" fill="#001F63"/>
<path d="M14.2122 44.7928H18.6737V26.7454L14.2122 24.4614V44.7928Z" fill="#001F63"/>
<path d="M41.2537 44.7928H45.727V25.42L41.2537 27.6922V44.7928Z" fill="#001F63"/>
<path d="M27.301 44.994H22.8394V24.994L9.89269 18.3668V44.994H5.43115V11.0768L27.301 22.2603V44.994Z" fill="#001F63"/>
<path d="M54.3069 44.994H49.8454V18.3668L36.8868 24.994V44.994H32.4253V22.2603L54.3069 11.0768V44.994Z" fill="#001F63"/>
</g>
<defs>
<clipPath id="clip0_433_73714">
<rect width="60" height="60" fill="white"/>
</clipPath>
</defs>
</svg>
