<?xml version="1.0" encoding="utf-8"?>
<!-- Generator: Adobe Illustrator 24.3.0, SVG Export Plug-In . SVG Version: 6.00 Build 0)  -->
<svg width="60" height="60" viewBox="0 0 44 41" fill="none" xmlns="http://www.w3.org/2000/svg">
<path d="M21.5319 37.3091L18.2066 34.2668H2.28773L0.00012207 37.3091H21.5319Z" fill="url(#paint0_linear_53_9)"/>
<path d="M43.0639 37.3091L40.4225 34.2668H24.8809L21.5557 37.3091H43.0639Z" fill="url(#paint1_linear_53_9)"/>
<path d="M17.6172 37.3091C17.853 39.2665 19.5039 40.7994 21.5321 40.7994C23.5602 40.7994 25.2347 39.2665 25.4469 37.3091H17.6172Z" fill="url(#paint2_linear_53_9)"/>
<path d="M32.9228 0H9.90527V12.8295L13.4428 14.4567V3.74979H29.3617V15.1407L32.9228 13.5134V0Z" fill="url(#paint3_linear_53_9)"/>
<path d="M10.306 31.0125H13.4898V18.0652L10.306 16.4143V31.0125Z" fill="url(#paint4_linear_53_9)"/>
<path d="M29.7152 31.0124H32.9226V17.0981L29.7152 18.749V31.0124Z" fill="url(#paint5_linear_53_9)"/>
<path d="M19.6921 31.1539H16.4848V16.8151L7.19284 12.0512V31.1539H3.98547V6.81567L19.6921 14.8341V31.1539Z" fill="url(#paint6_linear_53_9)"/>
<path d="M39.0779 31.1539H35.8705V12.0512L26.5786 16.8151V31.1539H23.3712V14.8341L39.0779 6.81567V31.1539Z" fill="url(#paint7_linear_53_9)"/>
<defs>
<linearGradient id="paint0_linear_53_9" x1="37.2528" y1="0.0193465" x2="7.63417" y2="41.7192" gradientUnits="userSpaceOnUse">
<stop stop-color="#00F2FF"/>
<stop offset="1" stop-color="#0063FF"/>
</linearGradient>
<linearGradient id="paint1_linear_53_9" x1="51.5687" y1="10.1876" x2="21.9501" y2="51.8874" gradientUnits="userSpaceOnUse">
<stop stop-color="#00F2FF"/>
<stop offset="1" stop-color="#0063FF"/>
</linearGradient>
<linearGradient id="paint2_linear_53_9" x1="44.6035" y1="5.24033" x2="14.985" y2="46.9402" gradientUnits="userSpaceOnUse">
<stop stop-color="#00F2FF"/>
<stop offset="1" stop-color="#0063FF"/>
</linearGradient>
<linearGradient id="paint3_linear_53_9" x1="29.9034" y1="-5.20067" x2="0.284866" y2="36.4992" gradientUnits="userSpaceOnUse">
<stop stop-color="#00F2FF"/>
<stop offset="1" stop-color="#0063FF"/>
</linearGradient>
<linearGradient id="paint4_linear_53_9" x1="31.5896" y1="-4.00278" x2="1.97101" y2="37.6971" gradientUnits="userSpaceOnUse">
<stop stop-color="#00F2FF"/>
<stop offset="1" stop-color="#0063FF"/>
</linearGradient>
<linearGradient id="paint5_linear_53_9" x1="45.0443" y1="5.55383" x2="15.4257" y2="47.2536" gradientUnits="userSpaceOnUse">
<stop stop-color="#00F2FF"/>
<stop offset="1" stop-color="#0063FF"/>
</linearGradient>
<linearGradient id="paint6_linear_53_9" x1="29.3195" y1="-5.61517" x2="-0.299073" y2="36.0847" gradientUnits="userSpaceOnUse">
<stop stop-color="#00F2FF"/>
<stop offset="1" stop-color="#0063FF"/>
</linearGradient>
<linearGradient id="paint7_linear_53_9" x1="44.0973" y1="4.88114" x2="14.4787" y2="46.581" gradientUnits="userSpaceOnUse">
<stop stop-color="#00F2FF"/>
<stop offset="1" stop-color="#0063FF"/>
</linearGradient>
</defs>
</svg>

