<svg width="150" height="26" viewBox="0 0 150 26" fill="none" xmlns="http://www.w3.org/2000/svg">
<path d="M17.0961 0.750053H11.487L0.617554 25.2209H6.4301L8.60981 19.9605H19.9443L22.124 25.2209H28.0818L17.0961 0.750053ZM10.3826 15.6883L14.277 6.35917L18.1714 15.6883H10.3826Z" fill="#001F63"/>
<path d="M58.6844 0.749897H52.6684L46.2165 10.6603H42.2058V0.749897H36.5386V25.2498H42.2058V15.3685H46.0712L52.4068 25.2498H58.8878L50.634 12.5784L58.6844 0.749897Z" fill="#001F63"/>
<path d="M71.7924 25.2498H77.4015V5.37088H85.2193V0.749897H64.0035V5.37088H71.7924V25.2498Z" fill="#001F63"/>
<path d="M111.085 25.2498H116.665V0.749897H111.347L99.6342 16.7344V0.749897H94.0251V25.2498H99.4017L111.085 9.32341V25.2498Z" fill="#001F63"/>
<path d="M149.535 18.3619C149.535 16.2985 148.779 14.7 147.268 13.5956C146.6 13.1306 145.844 12.7528 144.943 12.4913C145.379 12.2878 145.786 12.0553 146.164 11.7647C147.675 10.6603 148.431 9.09091 148.431 7.08558C148.431 5.05119 147.646 3.4818 146.048 2.40648C144.449 1.30209 142.24 0.749897 139.392 0.749897H128V25.2207H140.061C143.199 25.2207 145.553 24.6104 147.152 23.3898C148.75 22.1691 149.535 20.4835 149.535 18.3619ZM133.609 4.96399H138.927C140.148 4.96399 141.078 5.22556 141.717 5.71963C142.357 6.2137 142.676 6.96933 142.676 7.9284C142.676 8.88747 142.357 9.61404 141.717 10.1372C141.078 10.6603 140.148 10.8928 138.927 10.8928H133.609V4.96399ZM142.822 20.2801C142.153 20.8032 141.165 21.0357 139.857 21.0357H133.609V14.8453H139.857C141.165 14.8453 142.153 15.1069 142.822 15.601C143.49 16.095 143.839 16.8797 143.839 17.926C143.839 18.9722 143.519 19.7569 142.822 20.2801Z" fill="#001F63"/>
</svg>
