<svg width="115" height="8" viewBox="0 0 115 8" fill="none" xmlns="http://www.w3.org/2000/svg">
<path d="M4.77024 0.909091V6H3.70632V1.78409H1.64808V6H0.584162V0.909091H4.77024ZM10.7533 3.45455C10.7533 4.00971 10.648 4.48201 10.4376 4.87145C10.2288 5.26089 9.94374 5.55836 9.58247 5.76385C9.22286 5.96768 8.8185 6.0696 8.3694 6.0696C7.91699 6.0696 7.51097 5.96686 7.15136 5.76136C6.79175 5.55587 6.50754 5.2584 6.29873 4.86896C6.08993 4.47952 5.98552 4.00805 5.98552 3.45455C5.98552 2.89938 6.08993 2.42708 6.29873 2.03764C6.50754 1.6482 6.79175 1.35156 7.15136 1.14773C7.51097 0.942235 7.91699 0.839488 8.3694 0.839488C8.8185 0.839488 9.22286 0.942235 9.58247 1.14773C9.94374 1.35156 10.2288 1.6482 10.4376 2.03764C10.648 2.42708 10.7533 2.89938 10.7533 3.45455ZM9.66201 3.45455C9.66201 3.09493 9.60815 2.79167 9.50044 2.54474C9.39438 2.29782 9.2444 2.11056 9.05051 1.98295C8.85662 1.85535 8.62958 1.79155 8.3694 1.79155C8.10922 1.79155 7.88218 1.85535 7.68829 1.98295C7.4944 2.11056 7.3436 2.29782 7.23588 2.54474C7.12982 2.79167 7.07679 3.09493 7.07679 3.45455C7.07679 3.81416 7.12982 4.11742 7.23588 4.36435C7.3436 4.61127 7.4944 4.79853 7.68829 4.92614C7.88218 5.05374 8.10922 5.11754 8.3694 5.11754C8.62958 5.11754 8.85662 5.05374 9.05051 4.92614C9.2444 4.79853 9.39438 4.61127 9.50044 4.36435C9.60815 4.11742 9.66201 3.81416 9.66201 3.45455ZM16.3224 2.69141H15.2337C15.2138 2.55054 15.1732 2.42543 15.1118 2.31605C15.0505 2.20502 14.9718 2.11056 14.8757 2.03267C14.7796 1.95478 14.6685 1.89512 14.5426 1.85369C14.4183 1.81226 14.2832 1.79155 14.1374 1.79155C13.8739 1.79155 13.6444 1.85701 13.4488 1.98793C13.2533 2.11719 13.1017 2.30611 12.9939 2.55469C12.8862 2.80161 12.8324 3.10156 12.8324 3.45455C12.8324 3.81747 12.8862 4.1224 12.9939 4.36932C13.1033 4.61624 13.2558 4.80268 13.4513 4.92862C13.6469 5.05457 13.8731 5.11754 14.13 5.11754C14.2741 5.11754 14.4075 5.09848 14.5302 5.06037C14.6545 5.02225 14.7647 4.96674 14.8608 4.89382C14.9569 4.81925 15.0364 4.72893 15.0994 4.62287C15.164 4.51681 15.2088 4.39583 15.2337 4.25994L16.3224 4.26491C16.2943 4.49858 16.2238 4.72396 16.1111 4.94105C16.0001 5.15649 15.8501 5.34955 15.6612 5.52024C15.4739 5.68928 15.2502 5.82351 14.99 5.92294C14.7315 6.02071 14.439 6.0696 14.1126 6.0696C13.6585 6.0696 13.2525 5.96686 12.8945 5.76136C12.5382 5.55587 12.2565 5.2584 12.0493 4.86896C11.8439 4.47952 11.7411 4.00805 11.7411 3.45455C11.7411 2.89938 11.8455 2.42708 12.0543 2.03764C12.2631 1.6482 12.5465 1.35156 12.9045 1.14773C13.2624 0.942235 13.6651 0.839488 14.1126 0.839488C14.4075 0.839488 14.681 0.880918 14.9329 0.963778C15.1864 1.04664 15.411 1.16761 15.6065 1.3267C15.8021 1.48414 15.9612 1.6772 16.0838 1.90589C16.2081 2.13459 16.2876 2.39643 16.3224 2.69141ZM17.1804 1.79652V0.909091H21.3615V1.79652H19.8029V6H18.739V1.79652H17.1804ZM22.3301 0.909091H23.4039V4.1108H23.4462L25.6461 0.909091H26.5882V6H25.5119V2.79581H25.4746L23.2622 6H22.3301V0.909091ZM31.1357 0.909091V1.79652H28.8339V6H27.7575V0.909091H31.1357ZM32.3603 6H31.2069L32.9644 0.909091H34.3514L36.1064 6H34.953L33.6778 2.07244H33.638L32.3603 6ZM32.2882 3.99893H35.0127V4.83913H32.2882V3.99893ZM36.9992 0.909091H38.3266L39.7286 4.32955H39.7882L41.1902 0.909091H42.5176V6H41.4736V2.68643H41.4313L40.1139 5.97514H39.4029L38.0854 2.67401H38.0432V6H36.9992V0.909091ZM43.6844 6V0.909091H47.1148V1.79652H44.7608V3.00959H46.9383V3.89702H44.7608V5.11257H47.1248V6H43.6844ZM50.7 6.0696V5.1946H50.976C51.1135 5.1946 51.2245 5.17803 51.3091 5.14489C51.3936 5.11009 51.4607 5.05954 51.5104 4.99325C51.5618 4.92531 51.6049 4.84079 51.6397 4.7397L51.7018 4.57315L49.8524 0.909091H50.966L52.1642 3.41477L53.1659 0.909091H54.2647L52.5097 5.00071C52.4252 5.18963 52.3249 5.36529 52.2089 5.5277C52.0946 5.6901 51.9479 5.82102 51.7689 5.92045C51.5899 6.01989 51.3613 6.0696 51.0828 6.0696H50.7ZM59.3112 2.69141H58.2224C58.2025 2.55054 58.1619 2.42543 58.1006 2.31605C58.0393 2.20502 57.9606 2.11056 57.8644 2.03267C57.7683 1.95478 57.6573 1.89512 57.5314 1.85369C57.4071 1.81226 57.272 1.79155 57.1262 1.79155C56.8627 1.79155 56.6332 1.85701 56.4376 1.98793C56.2421 2.11719 56.0904 2.30611 55.9827 2.55469C55.875 2.80161 55.8211 3.10156 55.8211 3.45455C55.8211 3.81747 55.875 4.1224 55.9827 4.36932C56.0921 4.61624 56.2445 4.80268 56.4401 4.92862C56.6356 5.05457 56.8618 5.11754 57.1187 5.11754C57.2629 5.11754 57.3963 5.09848 57.5189 5.06037C57.6432 5.02225 57.7534 4.96674 57.8495 4.89382C57.9457 4.81925 58.0252 4.72893 58.0882 4.62287C58.1528 4.51681 58.1975 4.39583 58.2224 4.25994L59.3112 4.26491C59.283 4.49858 59.2126 4.72396 59.0999 4.94105C58.9889 5.15649 58.8389 5.34955 58.65 5.52024C58.4627 5.68928 58.239 5.82351 57.9788 5.92294C57.7203 6.02071 57.4278 6.0696 57.1013 6.0696C56.6472 6.0696 56.2412 5.96686 55.8833 5.76136C55.527 5.55587 55.2452 5.2584 55.0381 4.86896C54.8326 4.47952 54.7299 4.00805 54.7299 3.45455C54.7299 2.89938 54.8343 2.42708 55.0431 2.03764C55.2519 1.6482 55.5353 1.35156 55.8932 1.14773C56.2512 0.942235 56.6539 0.839488 57.1013 0.839488C57.3963 0.839488 57.6697 0.880918 57.9216 0.963778C58.1752 1.04664 58.3997 1.16761 58.5953 1.3267C58.7908 1.48414 58.9499 1.6772 59.0725 1.90589C59.1968 2.13459 59.2764 2.39643 59.3112 2.69141ZM64.6908 0.909091V6H63.6269V1.78409H61.5686V6H60.5047V0.909091H64.6908ZM65.9956 6V0.909091H69.426V1.79652H67.0719V3.00959H69.2495V3.89702H67.0719V5.11257H69.4359V6H65.9956ZM71.5709 0.909091L72.5976 2.64418H72.6373L73.6689 0.909091H74.8845L73.3309 3.45455L74.9193 6H73.6814L72.6373 4.26243H72.5976L71.5535 6H70.3206L71.914 3.45455L70.3504 0.909091H71.5709ZM76.7231 6H75.5697L77.3271 0.909091H78.7142L80.4692 6H79.3158L78.0406 2.07244H78.0008L76.7231 6ZM76.651 3.99893H79.3754V4.83913H76.651V3.99893ZM85.114 6.0696C84.7427 6.0696 84.4121 6.0058 84.1221 5.8782C83.8338 5.74893 83.6059 5.57161 83.4385 5.34624C83.2728 5.1192 83.1875 4.85736 83.1825 4.56072H84.2663C84.2729 4.68501 84.3135 4.79439 84.3881 4.88885C84.4643 4.98165 84.5654 5.05374 84.6914 5.10511C84.8173 5.15649 84.959 5.18217 85.1164 5.18217C85.2805 5.18217 85.4255 5.15317 85.5515 5.09517C85.6774 5.03717 85.776 4.95679 85.8473 4.85405C85.9185 4.7513 85.9542 4.63281 85.9542 4.49858C85.9542 4.36269 85.916 4.24254 85.8398 4.13814C85.7652 4.03208 85.6575 3.94922 85.5167 3.88956C85.3775 3.8299 85.2117 3.80007 85.0195 3.80007H84.5447V3.00959H85.0195C85.1819 3.00959 85.3253 2.98142 85.4495 2.92507C85.5755 2.86873 85.6733 2.79084 85.7429 2.69141C85.8125 2.59032 85.8473 2.47266 85.8473 2.33842C85.8473 2.21082 85.8166 2.09896 85.7553 2.00284C85.6956 1.90507 85.6111 1.82884 85.5017 1.77415C85.394 1.71946 85.2681 1.69212 85.1239 1.69212C84.9781 1.69212 84.8447 1.71863 84.7237 1.77166C84.6027 1.82303 84.5058 1.89678 84.4329 1.9929C84.3599 2.08901 84.321 2.2017 84.316 2.33097H83.2844C83.2894 2.03764 83.3731 1.77912 83.5355 1.5554C83.6979 1.33168 83.9166 1.15684 84.1917 1.03089C84.4685 0.903291 84.7809 0.839488 85.1289 0.839488C85.4802 0.839488 85.7876 0.903291 86.0511 1.03089C86.3146 1.1585 86.5193 1.33085 86.6651 1.54794C86.8126 1.76338 86.8855 2.00533 86.8838 2.27379C86.8855 2.55883 86.7968 2.79664 86.6179 2.98722C86.4405 3.17779 86.2094 3.29877 85.9243 3.35014V3.38991C86.2989 3.43797 86.5839 3.56806 86.7794 3.78018C86.9767 3.99065 87.0744 4.25414 87.0728 4.57067C87.0744 4.86068 86.9907 5.11837 86.8217 5.34375C86.6543 5.56913 86.4231 5.74645 86.1282 5.87571C85.8332 6.00497 85.4951 6.0696 85.114 6.0696ZM89.0338 6H87.8804L89.6378 0.909091H91.0249L92.7799 6H91.6265L90.3513 2.07244H90.3115L89.0338 6ZM88.9617 3.99893H91.6861V4.83913H88.9617V3.99893ZM93.6726 6V0.909091H97.103V1.79652H94.749V3.00959H96.9265V3.89702H94.749V5.11257H97.113V6H93.6726ZM97.9628 7.22798V5.1424H98.3084C98.426 5.05788 98.5337 4.93857 98.6315 4.78445C98.7293 4.62867 98.813 4.41406 98.8826 4.14062C98.9522 3.86553 99.0019 3.50592 99.0317 3.06179L99.1759 0.909091H102.544V5.1424H103.101V7.22301H102.067V6H98.9969V7.22798H97.9628ZM99.5513 5.1424H101.51V1.79652H100.145L100.066 3.06179C100.044 3.3982 100.009 3.6965 99.9589 3.95668C99.9109 4.21686 99.852 4.44472 99.7824 4.64027C99.7145 4.83416 99.6374 5.00154 99.5513 5.1424ZM104.035 6V0.909091H105.112V3.00959H107.297V0.909091H108.371V6H107.297V3.89702H105.112V6H104.035ZM114.216 3.45455C114.216 4.00971 114.111 4.48201 113.901 4.87145C113.692 5.26089 113.407 5.55836 113.045 5.76385C112.686 5.96768 112.282 6.0696 111.832 6.0696C111.38 6.0696 110.974 5.96686 110.614 5.76136C110.255 5.55587 109.971 5.2584 109.762 4.86896C109.553 4.47952 109.449 4.00805 109.449 3.45455C109.449 2.89938 109.553 2.42708 109.762 2.03764C109.971 1.6482 110.255 1.35156 110.614 1.14773C110.974 0.942235 111.38 0.839488 111.832 0.839488C112.282 0.839488 112.686 0.942235 113.045 1.14773C113.407 1.35156 113.692 1.6482 113.901 2.03764C114.111 2.42708 114.216 2.89938 114.216 3.45455ZM113.125 3.45455C113.125 3.09493 113.071 2.79167 112.963 2.54474C112.857 2.29782 112.707 2.11056 112.514 1.98295C112.32 1.85535 112.093 1.79155 111.832 1.79155C111.572 1.79155 111.345 1.85535 111.151 1.98295C110.957 2.11056 110.807 2.29782 110.699 2.54474C110.593 2.79167 110.54 3.09493 110.54 3.45455C110.54 3.81416 110.593 4.11742 110.699 4.36435C110.807 4.61127 110.957 4.79853 111.151 4.92614C111.345 5.05374 111.572 5.11754 111.832 5.11754C112.093 5.11754 112.32 5.05374 112.514 4.92614C112.707 4.79853 112.857 4.61127 112.963 4.36435C113.071 4.11742 113.125 3.81416 113.125 3.45455Z" fill="#001F63"/>
</svg>
