<svg width="48" height="48" viewBox="0 0 48 48" fill="none" xmlns="http://www.w3.org/2000/svg">
<rect x="0.769231" y="0.769322" width="46.4615" height="46.4615" rx="3.23077" fill="#F1F3F7" stroke="#001F63" stroke-width="1.53846"/>
<mask id="mask0_4940_34374" style="mask-type:alpha" maskUnits="userSpaceOnUse" x="1" y="1" width="46" height="46">
<rect x="1.6808" y="1.84975" width="44.6131" height="44.6024" rx="4" fill="#E3EFFF"/>
</mask>
<g mask="url(#mask0_4940_34374)">
<line x1="32.8205" y1="0.000137307" x2="32.8205" y2="50.0482" stroke="#B4B9C9" stroke-width="1.02564"/>
<line x1="41.1282" y1="0.000137307" x2="41.1282" y2="50.0482" stroke="#B4B9C9" stroke-width="1.02564"/>
<line x1="24.5128" y1="0.000137307" x2="24.5128" y2="50.0482" stroke="#B4B9C9" stroke-width="1.02564"/>
<line x1="7.89743" y1="0.000137307" x2="7.89743" y2="50.0482" stroke="#B4B9C9" stroke-width="1.02564"/>
<line x1="16.2051" y1="0.000137307" x2="16.2051" y2="50.0482" stroke="#B4B9C9" stroke-width="1.02564"/>
<line x1="-1.02402" y1="16.2036" x2="49.0241" y2="16.2036" stroke="#B4B9C9" stroke-width="1.02564"/>
<line x1="-1.02402" y1="7.89592" x2="49.0241" y2="7.89591" stroke="#B4B9C9" stroke-width="1.02564"/>
<line x1="-1.02402" y1="24.5113" x2="49.0241" y2="24.5113" stroke="#B4B9C9" stroke-width="1.02564"/>
<line x1="-1.02403" y1="41.1267" x2="49.024" y2="41.1267" stroke="#B4B9C9" stroke-width="1.02564"/>
<line x1="-1.02402" y1="32.8191" x2="49.0241" y2="32.8191" stroke="#B4B9C9" stroke-width="1.02564"/>
<rect x="1.41192" y="1.53473" width="45.0024" height="44.9916" rx="4" fill="url(#paint0_radial_4940_34374)"/>
</g>
<g filter="url(#filter0_d_4940_34374)">
<path d="M20.7414 28.707H31.6034C33.2032 28.707 34.5 27.4102 34.5 25.8104V16.3966C34.5 14.7969 33.2032 13.5001 31.6034 13.5001H16.3966C14.7968 13.5001 13.5 14.7969 13.5 16.3966V25.8104C13.5 27.4102 14.7968 28.707 16.3966 28.707H20.7414ZM20.7414 28.707C20.7414 28.707 21.1034 33.0518 18.2069 34.5001H29.7931C26.8966 33.0518 27.2586 28.707 27.2586 28.707" fill="white"/>
<path d="M20.7414 28.707H31.6034C33.2032 28.707 34.5 27.4102 34.5 25.8104V16.3966C34.5 14.7969 33.2032 13.5001 31.6034 13.5001H16.3966C14.7968 13.5001 13.5 14.7969 13.5 16.3966V25.8104C13.5 27.4102 14.7968 28.707 16.3966 28.707H20.7414ZM20.7414 28.707C20.7414 28.707 21.1034 33.0518 18.2069 34.5001H29.7931C26.8966 33.0518 27.2586 28.707 27.2586 28.707" stroke="#001F63" stroke-width="1.23077" stroke-linecap="round" stroke-linejoin="round"/>
<path d="M20.7414 28.707C20.7414 28.707 21.1034 33.0518 18.2069 34.5001H29.7931C26.8965 33.0518 27.2586 28.707 27.2586 28.707" fill="#B4B9C9" stroke="#001F63" stroke-width="1.23077" stroke-linecap="round" stroke-linejoin="round"/>
</g>
<defs>
<filter id="filter0_d_4940_34374" x="8.88461" y="9.8847" width="30.2308" height="30.2308" filterUnits="userSpaceOnUse" color-interpolation-filters="sRGB">
<feFlood flood-opacity="0" result="BackgroundImageFix"/>
<feColorMatrix in="SourceAlpha" type="matrix" values="0 0 0 0 0 0 0 0 0 0 0 0 0 0 0 0 0 0 127 0" result="hardAlpha"/>
<feOffset dy="1"/>
<feGaussianBlur stdDeviation="2"/>
<feComposite in2="hardAlpha" operator="out"/>
<feColorMatrix type="matrix" values="0 0 0 0 0.0969792 0 0 0 0 0.127894 0 0 0 0 0.2375 0 0 0 0.08 0"/>
<feBlend mode="normal" in2="BackgroundImageFix" result="effect1_dropShadow_4940_34374"/>
<feBlend mode="normal" in="SourceGraphic" in2="effect1_dropShadow_4940_34374" result="shape"/>
</filter>
<radialGradient id="paint0_radial_4940_34374" cx="0" cy="0" r="1" gradientUnits="userSpaceOnUse" gradientTransform="translate(23.9131 24.0305) rotate(90) scale(22.4958 22.5012)">
<stop stop-color="#F6FAFD" stop-opacity="0.28"/>
<stop offset="1" stop-color="#F6FAFD"/>
</radialGradient>
</defs>
</svg>
