<svg width="48" height="48" viewBox="0 0 48 48" fill="none" xmlns="http://www.w3.org/2000/svg">
<rect x="0.769231" y="0.769322" width="46.4615" height="46.4615" rx="3.23077" fill="#F1F3F7" stroke="#001F63" stroke-width="1.53846"/>
<mask id="mask0_4940_34370" style="mask-type:alpha" maskUnits="userSpaceOnUse" x="1" y="1" width="46" height="46">
<rect x="1.6808" y="1.84975" width="44.6131" height="44.6024" rx="4" fill="#E3EFFF"/>
</mask>
<g mask="url(#mask0_4940_34370)">
<line x1="32.8205" y1="0.000137307" x2="32.8205" y2="50.0482" stroke="#B4B9C9" stroke-width="1.02564"/>
<line x1="41.1282" y1="0.000137307" x2="41.1282" y2="50.0482" stroke="#B4B9C9" stroke-width="1.02564"/>
<line x1="24.5128" y1="0.000137307" x2="24.5128" y2="50.0482" stroke="#B4B9C9" stroke-width="1.02564"/>
<line x1="7.89743" y1="0.000137307" x2="7.89744" y2="50.0482" stroke="#B4B9C9" stroke-width="1.02564"/>
<line x1="16.2051" y1="0.000137307" x2="16.2051" y2="50.0482" stroke="#B4B9C9" stroke-width="1.02564"/>
<line x1="-1.02402" y1="16.2036" x2="49.0241" y2="16.2036" stroke="#B4B9C9" stroke-width="1.02564"/>
<line x1="-1.02402" y1="7.89592" x2="49.0241" y2="7.89591" stroke="#B4B9C9" stroke-width="1.02564"/>
<line x1="-1.02402" y1="24.5113" x2="49.0241" y2="24.5113" stroke="#B4B9C9" stroke-width="1.02564"/>
<line x1="-1.02403" y1="41.1267" x2="49.024" y2="41.1267" stroke="#B4B9C9" stroke-width="1.02564"/>
<line x1="-1.02402" y1="32.8191" x2="49.0241" y2="32.8191" stroke="#B4B9C9" stroke-width="1.02564"/>
<rect x="1.41193" y="1.53473" width="45.0024" height="44.9916" rx="4" fill="url(#paint0_radial_4940_34370)"/>
</g>
<g filter="url(#filter0_d_4940_34370)">
<path d="M16.2207 15.1534C13.7243 15.1534 13.2033 17.37 13.2584 18.8769C13.2661 19.0874 13.5242 19.1553 13.6493 18.9859C13.6938 18.9256 13.7642 18.8901 13.8392 18.8901H23.6761C24.8788 18.8901 25.7024 17.7714 25.1036 16.7284C24.6176 15.8819 23.6771 15.413 23.0889 15.2248C22.9166 15.1697 22.7368 15.1534 22.556 15.1534H16.2207Z" fill="#B4B9C9"/>
<path d="M34.7454 30.4075V21.2601C34.7454 19.9129 33.4255 18.8208 31.7973 18.8208H13.3716V30.4075C13.3716 31.7547 14.6915 32.8468 16.3197 32.8468H31.7973C33.4255 32.8468 34.7454 31.7547 34.7454 30.4075Z" fill="white" stroke="#001F63" stroke-width="1.23077" stroke-linecap="round" stroke-linejoin="round"/>
<path d="M26.2696 18.5161L24.8965 16.4333C24.38 15.6497 23.3872 15.1621 22.3083 15.1621H16.3197C14.6915 15.1621 13.3716 16.2542 13.3716 17.6014V22.7849" stroke="#001F63" stroke-width="1.23077" stroke-linecap="round" stroke-linejoin="round"/>
</g>
<defs>
<filter id="filter0_d_4940_34370" x="8.75623" y="11.5467" width="30.6045" height="26.9155" filterUnits="userSpaceOnUse" color-interpolation-filters="sRGB">
<feFlood flood-opacity="0" result="BackgroundImageFix"/>
<feColorMatrix in="SourceAlpha" type="matrix" values="0 0 0 0 0 0 0 0 0 0 0 0 0 0 0 0 0 0 127 0" result="hardAlpha"/>
<feOffset dy="1"/>
<feGaussianBlur stdDeviation="2"/>
<feComposite in2="hardAlpha" operator="out"/>
<feColorMatrix type="matrix" values="0 0 0 0 0.0969792 0 0 0 0 0.127894 0 0 0 0 0.2375 0 0 0 0.08 0"/>
<feBlend mode="normal" in2="BackgroundImageFix" result="effect1_dropShadow_4940_34370"/>
<feBlend mode="normal" in="SourceGraphic" in2="effect1_dropShadow_4940_34370" result="shape"/>
</filter>
<radialGradient id="paint0_radial_4940_34370" cx="0" cy="0" r="1" gradientUnits="userSpaceOnUse" gradientTransform="translate(23.9131 24.0305) rotate(90) scale(22.4958 22.5012)">
<stop stop-color="#F6FAFD" stop-opacity="0.28"/>
<stop offset="1" stop-color="#F6FAFD"/>
</radialGradient>
</defs>
</svg>
