<svg width="48" height="48" viewBox="0 0 48 48" fill="none" xmlns="http://www.w3.org/2000/svg">
<rect x="0.769231" y="0.769322" width="46.4615" height="46.4615" rx="3.23077" fill="#F1F3F7" stroke="#001F63" stroke-width="1.53846"/>
<mask id="mask0_4940_34377" style="mask-type:alpha" maskUnits="userSpaceOnUse" x="1" y="1" width="46" height="46">
<rect x="1.68082" y="1.84975" width="44.6131" height="44.6024" rx="4" fill="#E3EFFF"/>
</mask>
<g mask="url(#mask0_4940_34377)">
<line x1="32.8206" y1="0.000137307" x2="32.8206" y2="50.0482" stroke="#B4B9C9" stroke-width="1.02564"/>
<line x1="41.1282" y1="0.000137307" x2="41.1282" y2="50.0482" stroke="#B4B9C9" stroke-width="1.02564"/>
<line x1="24.5129" y1="0.000137307" x2="24.5129" y2="50.0482" stroke="#B4B9C9" stroke-width="1.02564"/>
<line x1="7.89746" y1="0.000137307" x2="7.89747" y2="50.0482" stroke="#B4B9C9" stroke-width="1.02564"/>
<line x1="16.2052" y1="0.000137307" x2="16.2052" y2="50.0482" stroke="#B4B9C9" stroke-width="1.02564"/>
<line x1="-1.02402" y1="16.2036" x2="49.0241" y2="16.2036" stroke="#B4B9C9" stroke-width="1.02564"/>
<line x1="-1.02402" y1="7.89592" x2="49.0241" y2="7.89591" stroke="#B4B9C9" stroke-width="1.02564"/>
<line x1="-1.02402" y1="24.5113" x2="49.0241" y2="24.5113" stroke="#B4B9C9" stroke-width="1.02564"/>
<line x1="-1.02402" y1="41.1267" x2="49.0241" y2="41.1267" stroke="#B4B9C9" stroke-width="1.02564"/>
<line x1="-1.02402" y1="32.8191" x2="49.0241" y2="32.8191" stroke="#B4B9C9" stroke-width="1.02564"/>
<rect x="1.41193" y="1.53473" width="45.0024" height="44.9916" rx="4" fill="url(#paint0_radial_4940_34377)"/>
</g>
<g filter="url(#filter0_d_4940_34377)">
<path d="M16.3966 33.5001H31.6034C33.2032 33.5001 34.5 32.2033 34.5 30.6035V19.7415L24 12.5001L13.5 19.7415V30.6035C13.5 32.2033 14.7968 33.5001 16.3966 33.5001Z" fill="white" stroke="#001F63" stroke-width="1.23077" stroke-linecap="round" stroke-linejoin="round"/>
<path d="M20.7405 28.4298C20.7405 26.83 22.0374 25.5332 23.637 25.5332H24.3612C25.9609 25.5332 27.2577 26.83 27.2577 28.4298V33.4987H20.7405V28.4298Z" fill="#B4B9C9" stroke="#001F63" stroke-linecap="round"/>
</g>
<defs>
<filter id="filter0_d_4940_34377" x="8.88461" y="8.8847" width="30.2308" height="30.2308" filterUnits="userSpaceOnUse" color-interpolation-filters="sRGB">
<feFlood flood-opacity="0" result="BackgroundImageFix"/>
<feColorMatrix in="SourceAlpha" type="matrix" values="0 0 0 0 0 0 0 0 0 0 0 0 0 0 0 0 0 0 127 0" result="hardAlpha"/>
<feOffset dy="1"/>
<feGaussianBlur stdDeviation="2"/>
<feComposite in2="hardAlpha" operator="out"/>
<feColorMatrix type="matrix" values="0 0 0 0 0.0969792 0 0 0 0 0.127894 0 0 0 0 0.2375 0 0 0 0.08 0"/>
<feBlend mode="normal" in2="BackgroundImageFix" result="effect1_dropShadow_4940_34377"/>
<feBlend mode="normal" in="SourceGraphic" in2="effect1_dropShadow_4940_34377" result="shape"/>
</filter>
<radialGradient id="paint0_radial_4940_34377" cx="0" cy="0" r="1" gradientUnits="userSpaceOnUse" gradientTransform="translate(23.9131 24.0305) rotate(90) scale(22.4958 22.5012)">
<stop stop-color="#F6FAFD" stop-opacity="0.28"/>
<stop offset="1" stop-color="#F6FAFD"/>
</radialGradient>
</defs>
</svg>
