<svg width="48" height="48" viewBox="0 0 48 48" fill="none" xmlns="http://www.w3.org/2000/svg">
<rect x="0.769231" y="0.769322" width="46.4615" height="46.4615" rx="3.23077" fill="#F1F3F7" stroke="#001F63" stroke-width="1.53846"/>
<mask id="mask0_4940_34375" style="mask-type:alpha" maskUnits="userSpaceOnUse" x="1" y="1" width="46" height="46">
<rect x="1.6808" y="1.84975" width="44.6131" height="44.6024" rx="4" fill="#E3EFFF"/>
</mask>
<g mask="url(#mask0_4940_34375)">
<line x1="32.8205" y1="0.000137307" x2="32.8205" y2="50.0482" stroke="#B4B9C9" stroke-width="1.02564"/>
<line x1="41.1282" y1="0.000137307" x2="41.1282" y2="50.0482" stroke="#B4B9C9" stroke-width="1.02564"/>
<line x1="24.5128" y1="0.000137307" x2="24.5128" y2="50.0482" stroke="#B4B9C9" stroke-width="1.02564"/>
<line x1="7.89743" y1="0.000137307" x2="7.89744" y2="50.0482" stroke="#B4B9C9" stroke-width="1.02564"/>
<line x1="16.2051" y1="0.000137307" x2="16.2051" y2="50.0482" stroke="#B4B9C9" stroke-width="1.02564"/>
<line x1="-1.02402" y1="16.2036" x2="49.0241" y2="16.2036" stroke="#B4B9C9" stroke-width="1.02564"/>
<line x1="-1.02402" y1="7.89592" x2="49.0241" y2="7.89591" stroke="#B4B9C9" stroke-width="1.02564"/>
<line x1="-1.02402" y1="24.5113" x2="49.0241" y2="24.5113" stroke="#B4B9C9" stroke-width="1.02564"/>
<line x1="-1.02403" y1="41.1267" x2="49.024" y2="41.1267" stroke="#B4B9C9" stroke-width="1.02564"/>
<line x1="-1.02402" y1="32.8191" x2="49.0241" y2="32.8191" stroke="#B4B9C9" stroke-width="1.02564"/>
<rect x="1.41193" y="1.53473" width="45.0024" height="44.9916" rx="4" fill="url(#paint0_radial_4940_34375)"/>
</g>
<g filter="url(#filter0_d_4940_34375)">
<path d="M27.6526 19.4792C27.0739 18.9004 27.0739 17.962 27.6526 17.3832L31.1657 13.8702C30.3425 13.4757 29.4203 13.2547 28.4464 13.2547C24.9676 13.2547 22.1475 16.0748 22.1475 19.5537C22.1475 20.5275 22.3685 21.4497 22.763 22.2729L13.8685 31.1673C13.0499 31.9859 13.0499 33.3131 13.8685 34.1316C14.687 34.9501 16.0142 34.9501 16.8327 34.1316L25.7272 25.2371C26.5504 25.6317 27.4727 25.8526 28.4464 25.8526C31.9253 25.8526 34.7454 23.0325 34.7454 19.5537C34.7454 18.5922 34.5301 17.681 34.1449 16.8658L30.64 20.3705C30.0612 20.9494 29.1227 20.9494 28.544 20.3706L27.6526 19.4792Z" fill="white" stroke="#001F63" stroke-width="1.23077" stroke-linecap="round" stroke-linejoin="round"/>
<path d="M27.6526 17.3832C27.0738 17.962 27.0738 18.9004 27.6526 19.4792L28.5439 20.3706C29.1227 20.9494 30.0612 20.9494 30.6399 20.3705L34.1448 16.8658C34.53 17.681 34.7454 18.5922 34.7454 19.5537C34.7454 23.0325 31.9252 25.8526 28.4464 25.8526C23.0301 25.4448 21.9903 21.4834 22.1474 19.5537C22.1474 16.0748 24.9676 13.2547 28.4464 13.2547C29.4203 13.2547 30.3425 13.4757 31.1656 13.8702L27.6526 17.3832Z" fill="#B4B9C9" stroke="#001F63" stroke-width="1.23077" stroke-linecap="round" stroke-linejoin="round"/>
</g>
<defs>
<filter id="filter0_d_4940_34375" x="8.63919" y="9.6393" width="30.7216" height="30.7216" filterUnits="userSpaceOnUse" color-interpolation-filters="sRGB">
<feFlood flood-opacity="0" result="BackgroundImageFix"/>
<feColorMatrix in="SourceAlpha" type="matrix" values="0 0 0 0 0 0 0 0 0 0 0 0 0 0 0 0 0 0 127 0" result="hardAlpha"/>
<feOffset dy="1"/>
<feGaussianBlur stdDeviation="2"/>
<feComposite in2="hardAlpha" operator="out"/>
<feColorMatrix type="matrix" values="0 0 0 0 0.0969792 0 0 0 0 0.127894 0 0 0 0 0.2375 0 0 0 0.08 0"/>
<feBlend mode="normal" in2="BackgroundImageFix" result="effect1_dropShadow_4940_34375"/>
<feBlend mode="normal" in="SourceGraphic" in2="effect1_dropShadow_4940_34375" result="shape"/>
</filter>
<radialGradient id="paint0_radial_4940_34375" cx="0" cy="0" r="1" gradientUnits="userSpaceOnUse" gradientTransform="translate(23.9131 24.0305) rotate(90) scale(22.4958 22.5012)">
<stop stop-color="#F6FAFD" stop-opacity="0.28"/>
<stop offset="1" stop-color="#F6FAFD"/>
</radialGradient>
</defs>
</svg>
