<svg width="48" height="48" viewBox="0 0 48 48" fill="none" xmlns="http://www.w3.org/2000/svg">
<rect x="0.769231" y="0.769322" width="46.4615" height="46.4615" rx="3.23077" fill="#F1F3F7" stroke="#001F63" stroke-width="1.53846"/>
<mask id="mask0_5110_54656" style="mask-type:alpha" maskUnits="userSpaceOnUse" x="1" y="1" width="46" height="46">
<rect x="1.6808" y="1.50009" width="44.6131" height="44.9521" rx="2" fill="#E3EFFF"/>
</mask>
<g mask="url(#mask0_5110_54656)">
<line x1="32.8205" y1="0.000152565" x2="32.8205" y2="50.0482" stroke="#B4B9C9" stroke-width="1.02564"/>
<line x1="41.1282" y1="0.000152565" x2="41.1282" y2="50.0482" stroke="#B4B9C9" stroke-width="1.02564"/>
<line x1="24.5128" y1="0.000152565" x2="24.5128" y2="50.0482" stroke="#B4B9C9" stroke-width="1.02564"/>
<line x1="7.89743" y1="0.000152565" x2="7.89744" y2="50.0482" stroke="#B4B9C9" stroke-width="1.02564"/>
<line x1="16.2051" y1="0.000152565" x2="16.2051" y2="50.0482" stroke="#B4B9C9" stroke-width="1.02564"/>
<line x1="-1.02402" y1="16.2036" x2="49.0241" y2="16.2036" stroke="#B4B9C9" stroke-width="1.02564"/>
<line x1="-1.02402" y1="7.8959" x2="49.0241" y2="7.8959" stroke="#B4B9C9" stroke-width="1.02564"/>
<line x1="-1.02402" y1="24.5113" x2="49.0241" y2="24.5113" stroke="#B4B9C9" stroke-width="1.02564"/>
<line x1="-1.02403" y1="41.1267" x2="49.024" y2="41.1267" stroke="#B4B9C9" stroke-width="1.02564"/>
<line x1="-1.02402" y1="32.8191" x2="49.0241" y2="32.8191" stroke="#B4B9C9" stroke-width="1.02564"/>
<rect x="1.41193" y="1.53473" width="45.0024" height="44.9916" rx="2" fill="url(#paint0_radial_5110_54656)"/>
</g>
<circle cx="24" cy="24.0001" r="13.385" fill="white" stroke="#001F63" stroke-width="1.23"/>
<mask id="path-15-inside-1_5110_54656" fill="white">
<path d="M38 24.0001C38 25.8386 37.6379 27.6591 36.9343 29.3577C36.2307 31.0562 35.1995 32.5996 33.8995 33.8996C32.5995 35.1996 31.0561 36.2308 29.3576 36.9344C27.659 37.638 25.8385 38.0001 24 38.0001L24 24.0001H38Z"/>
</mask>
<path d="M38 24.0001C38 25.8386 37.6379 27.6591 36.9343 29.3577C36.2307 31.0562 35.1995 32.5996 33.8995 33.8996C32.5995 35.1996 31.0561 36.2308 29.3576 36.9344C27.659 37.638 25.8385 38.0001 24 38.0001L24 24.0001H38Z" fill="#B4B9C9" stroke="#001F63" stroke-width="2.46" mask="url(#path-15-inside-1_5110_54656)"/>
<mask id="path-16-inside-2_5110_54656" fill="white">
<path d="M10 24.0001C10 22.1616 10.3621 20.3411 11.0657 18.6425C11.7693 16.944 12.8005 15.4006 14.1005 14.1006C15.4005 12.8006 16.9439 11.7693 18.6424 11.0658C20.341 10.3622 22.1615 10.0001 24 10.0001L24 24.0001L10 24.0001Z"/>
</mask>
<path d="M10 24.0001C10 22.1616 10.3621 20.3411 11.0657 18.6425C11.7693 16.944 12.8005 15.4006 14.1005 14.1006C15.4005 12.8006 16.9439 11.7693 18.6424 11.0658C20.341 10.3622 22.1615 10.0001 24 10.0001L24 24.0001L10 24.0001Z" fill="#B4B9C9" stroke="#001F63" stroke-width="2.46" mask="url(#path-16-inside-2_5110_54656)"/>
<circle cx="24" cy="24.0001" r="5.82048" fill="#F8FAFF" stroke="#001F63" stroke-width="1.23"/>
<defs>
<radialGradient id="paint0_radial_5110_54656" cx="0" cy="0" r="1" gradientUnits="userSpaceOnUse" gradientTransform="translate(23.9131 24.0305) rotate(90) scale(22.4958 22.5012)">
<stop stop-color="#F6FAFD" stop-opacity="0.28"/>
<stop offset="1" stop-color="#F6FAFD"/>
</radialGradient>
</defs>
</svg>
