<svg width="48" height="48" viewBox="0 0 48 48" fill="none" xmlns="http://www.w3.org/2000/svg">
<rect x="0.769231" y="0.769322" width="46.4615" height="46.4615" rx="3.23077" fill="#F1F3F7" stroke="#001F63" stroke-width="1.53846"/>
<mask id="mask0_5197_58760" style="mask-type:alpha" maskUnits="userSpaceOnUse" x="1" y="1" width="46" height="46">
<rect x="1.6808" y="1.84976" width="44.6131" height="44.6024" rx="4" fill="#E3EFFF"/>
</mask>
<g mask="url(#mask0_5197_58760)">
<line x1="32.8205" y1="0.000152565" x2="32.8205" y2="50.0482" stroke="#B4B9C9" stroke-width="1.02564"/>
<line x1="41.1282" y1="0.000152565" x2="41.1282" y2="50.0482" stroke="#B4B9C9" stroke-width="1.02564"/>
<line x1="24.5128" y1="0.000152565" x2="24.5128" y2="50.0482" stroke="#B4B9C9" stroke-width="1.02564"/>
<line x1="7.89743" y1="0.000152565" x2="7.89744" y2="50.0482" stroke="#B4B9C9" stroke-width="1.02564"/>
<line x1="16.2051" y1="0.000152565" x2="16.2051" y2="50.0482" stroke="#B4B9C9" stroke-width="1.02564"/>
<line x1="-1.02402" y1="16.2036" x2="49.0241" y2="16.2036" stroke="#B4B9C9" stroke-width="1.02564"/>
<line x1="-1.02402" y1="7.8959" x2="49.0241" y2="7.8959" stroke="#B4B9C9" stroke-width="1.02564"/>
<line x1="-1.02402" y1="24.5113" x2="49.0241" y2="24.5113" stroke="#B4B9C9" stroke-width="1.02564"/>
<line x1="-1.02403" y1="41.1267" x2="49.024" y2="41.1267" stroke="#B4B9C9" stroke-width="1.02564"/>
<line x1="-1.02402" y1="32.8191" x2="49.0241" y2="32.8191" stroke="#B4B9C9" stroke-width="1.02564"/>
<rect x="1.41193" y="1.53473" width="45.0024" height="44.9916" rx="4" fill="url(#paint0_radial_5197_58760)"/>
</g>
<circle cx="24" cy="24.0001" r="10.9163" fill="white" stroke="#001F63" stroke-width="1.23"/>
<path d="M24 16.1271V24.0001H28.7851" stroke="#001F63" stroke-width="1.23" stroke-linecap="round"/>
<circle cx="24" cy="24.0001" r="1.81676" fill="#B4B9C9" stroke="#001F63" stroke-width="1.23"/>
<defs>
<radialGradient id="paint0_radial_5197_58760" cx="0" cy="0" r="1" gradientUnits="userSpaceOnUse" gradientTransform="translate(23.9131 24.0305) rotate(90) scale(22.4958 22.5012)">
<stop stop-color="#F6FAFD" stop-opacity="0.28"/>
<stop offset="1" stop-color="#F6FAFD"/>
</radialGradient>
</defs>
</svg>
