<svg width="48" height="48" viewBox="0 0 48 48" fill="none" xmlns="http://www.w3.org/2000/svg">
<rect x="0.769231" y="0.769322" width="46.4615" height="46.4615" rx="3.23077" fill="#F1F3F7" stroke="#4C5186" stroke-width="1.53846"/>
<mask id="mask0_5110_55159" style="mask-type:alpha" maskUnits="userSpaceOnUse" x="1" y="1" width="46" height="46">
<rect x="1.6808" y="1.84976" width="44.6131" height="44.6024" rx="4" fill="#E3EFFF"/>
</mask>
<g mask="url(#mask0_5110_55159)">
<line x1="32.8205" y1="0.000152565" x2="32.8205" y2="50.0482" stroke="#B4B9C9" stroke-width="1.02564"/>
<line x1="41.1282" y1="0.000152565" x2="41.1282" y2="50.0482" stroke="#B4B9C9" stroke-width="1.02564"/>
<line x1="24.5128" y1="0.000152565" x2="24.5128" y2="50.0482" stroke="#B4B9C9" stroke-width="1.02564"/>
<line x1="7.89743" y1="0.000152565" x2="7.89743" y2="50.0482" stroke="#B4B9C9" stroke-width="1.02564"/>
<line x1="16.2051" y1="0.000152565" x2="16.2051" y2="50.0482" stroke="#B4B9C9" stroke-width="1.02564"/>
<line x1="-1.02402" y1="16.2036" x2="49.0241" y2="16.2036" stroke="#B4B9C9" stroke-width="1.02564"/>
<line x1="-1.02402" y1="7.8959" x2="49.0241" y2="7.8959" stroke="#B4B9C9" stroke-width="1.02564"/>
<line x1="-1.02402" y1="24.5113" x2="49.0241" y2="24.5113" stroke="#B4B9C9" stroke-width="1.02564"/>
<line x1="-1.02403" y1="41.1267" x2="49.024" y2="41.1267" stroke="#B4B9C9" stroke-width="1.02564"/>
<line x1="-1.02402" y1="32.8191" x2="49.0241" y2="32.8191" stroke="#B4B9C9" stroke-width="1.02564"/>
<rect x="1.41192" y="1.53473" width="45.0024" height="44.9916" rx="4" fill="url(#paint0_radial_5110_55159)"/>
</g>
<rect x="13.2549" y="15.8375" width="21.4907" height="17.5752" rx="2" fill="white" stroke="#4C5186" stroke-width="1.23"/>
<rect x="13.2549" y="15.8375" width="21.4907" height="8.6001" rx="2" fill="#B4B9C9" stroke="#4C5186" stroke-width="1.23"/>
<path d="M19.063 15.8375V15.8375C19.063 14.0426 20.5181 12.5875 22.313 12.5875H25.688C27.4829 12.5875 28.938 14.0426 28.938 15.8375V15.8375" stroke="#4C5186" stroke-width="1.23"/>
<defs>
<radialGradient id="paint0_radial_5110_55159" cx="0" cy="0" r="1" gradientUnits="userSpaceOnUse" gradientTransform="translate(23.9131 24.0305) rotate(90) scale(22.4958 22.5012)">
<stop stop-color="#F6FAFD" stop-opacity="0.28"/>
<stop offset="1" stop-color="#F6FAFD"/>
</radialGradient>
</defs>
</svg>
