<svg width="48" height="48" viewBox="0 0 48 48" fill="none" xmlns="http://www.w3.org/2000/svg">
<rect x="0.769231" y="0.769322" width="46.4615" height="46.4615" rx="3.23077" fill="#F1F3F7" stroke="#4C5186" stroke-width="1.53846"/>
<mask id="mask0_4940_34379" style="mask-type:alpha" maskUnits="userSpaceOnUse" x="1" y="1" width="46" height="46">
<rect x="1.68082" y="1.84975" width="44.6131" height="44.6024" rx="4" fill="#E3EFFF"/>
</mask>
<g mask="url(#mask0_4940_34379)">
<line x1="32.8206" y1="0.000137307" x2="32.8206" y2="50.0482" stroke="#B4B9C9" stroke-width="1.02564"/>
<line x1="41.1282" y1="0.000137307" x2="41.1282" y2="50.0482" stroke="#B4B9C9" stroke-width="1.02564"/>
<line x1="24.5129" y1="0.000137307" x2="24.5129" y2="50.0482" stroke="#B4B9C9" stroke-width="1.02564"/>
<line x1="7.89746" y1="0.000137307" x2="7.89747" y2="50.0482" stroke="#B4B9C9" stroke-width="1.02564"/>
<line x1="16.2052" y1="0.000137307" x2="16.2052" y2="50.0482" stroke="#B4B9C9" stroke-width="1.02564"/>
<line x1="-1.02402" y1="16.2036" x2="49.0241" y2="16.2036" stroke="#B4B9C9" stroke-width="1.02564"/>
<line x1="-1.02402" y1="7.89592" x2="49.0241" y2="7.89591" stroke="#B4B9C9" stroke-width="1.02564"/>
<line x1="-1.02402" y1="24.5113" x2="49.0241" y2="24.5113" stroke="#B4B9C9" stroke-width="1.02564"/>
<line x1="-1.02402" y1="41.1267" x2="49.0241" y2="41.1267" stroke="#B4B9C9" stroke-width="1.02564"/>
<line x1="-1.02402" y1="32.8191" x2="49.0241" y2="32.8191" stroke="#B4B9C9" stroke-width="1.02564"/>
<rect x="1.41193" y="1.53473" width="45.0024" height="44.9916" rx="4" fill="url(#paint0_radial_4940_34379)"/>
</g>
<g filter="url(#filter0_d_4940_34379)">
<path d="M14.7617 28.2909L16.356 28.5406C17.5328 28.7248 18.3733 29.8028 18.2866 31.0171L18.1692 32.6631C18.135 33.1426 18.3904 33.5941 18.8135 33.8029L19.9927 34.3838C20.4157 34.5926 20.9209 34.5144 21.2665 34.189L22.4514 33.0692C23.325 32.2432 24.6729 32.2432 25.5475 33.0692L26.7323 34.189C27.0779 34.5157 27.582 34.5926 28.0062 34.3838L29.1876 33.8017C29.6096 33.5941 29.8639 33.1438 29.8297 32.6656L29.7121 31.0171C29.6255 29.8028 30.466 28.7248 31.6428 28.5406L33.2371 28.2909C33.7013 28.2186 34.0754 27.8628 34.1802 27.3938L34.471 26.0897C34.576 25.6207 34.3901 25.1342 34.0024 24.8636L32.6715 23.9314C31.6896 23.2432 31.3897 21.8994 31.9827 20.8436L32.7867 19.4134C33.0204 18.9969 32.9818 18.4755 32.6886 18.0998L31.8733 17.0534C31.5801 16.6778 31.0921 16.5227 30.6428 16.6638L29.101 17.1468C27.9618 17.5037 26.7472 16.9053 26.3093 15.7726L25.7185 14.2409C25.5452 13.7929 25.1221 13.4989 24.6511 13.5001L23.3442 13.5036C22.8732 13.5048 22.4514 13.8011 22.2803 14.2502L21.7043 15.7644C21.271 16.9041 20.0508 17.5072 18.9081 17.1479L17.3025 16.644C16.852 16.5017 16.3617 16.658 16.0686 17.0359L15.2589 18.0835C14.9658 18.4626 14.9305 18.9853 15.1688 19.4017L15.991 20.8354C16.5966 21.8923 16.3001 23.249 15.3125 23.9409L13.9976 24.8624C13.6099 25.1342 13.424 25.6207 13.5289 26.0885L13.8197 27.3927C13.9235 27.8628 14.2975 28.2186 14.7617 28.2909Z" fill="white" stroke="#4C5186" stroke-width="1.23077" stroke-linecap="round" stroke-linejoin="round"/>
<path d="M26.3044 21.6957C27.5767 22.9682 27.5767 25.032 26.3044 26.3044C25.0319 27.5768 22.9681 27.5768 21.6957 26.3044C20.4233 25.032 20.4233 22.9682 21.6957 21.6957C22.9681 20.4234 25.0319 20.4234 26.3044 21.6957Z" fill="#B4B9C9" stroke="#4C5186" stroke-width="1.23077" stroke-linecap="round" stroke-linejoin="round"/>
</g>
<defs>
<filter id="filter0_d_4940_34379" x="8.88464" y="9.8847" width="30.2307" height="30.2308" filterUnits="userSpaceOnUse" color-interpolation-filters="sRGB">
<feFlood flood-opacity="0" result="BackgroundImageFix"/>
<feColorMatrix in="SourceAlpha" type="matrix" values="0 0 0 0 0 0 0 0 0 0 0 0 0 0 0 0 0 0 127 0" result="hardAlpha"/>
<feOffset dy="1"/>
<feGaussianBlur stdDeviation="2"/>
<feComposite in2="hardAlpha" operator="out"/>
<feColorMatrix type="matrix" values="0 0 0 0 0.0969792 0 0 0 0 0.127894 0 0 0 0 0.2375 0 0 0 0.08 0"/>
<feBlend mode="normal" in2="BackgroundImageFix" result="effect1_dropShadow_4940_34379"/>
<feBlend mode="normal" in="SourceGraphic" in2="effect1_dropShadow_4940_34379" result="shape"/>
</filter>
<radialGradient id="paint0_radial_4940_34379" cx="0" cy="0" r="1" gradientUnits="userSpaceOnUse" gradientTransform="translate(23.9131 24.0305) rotate(90) scale(22.4958 22.5012)">
<stop stop-color="#F6FAFD" stop-opacity="0.28"/>
<stop offset="1" stop-color="#F6FAFD"/>
</radialGradient>
</defs>
</svg>
