<svg width="48" height="48" viewBox="0 0 48 48" fill="none" xmlns="http://www.w3.org/2000/svg">
<rect x="0.769231" y="0.769322" width="46.4615" height="46.4615" rx="3.23077" fill="#F1F3F7" stroke="#4C5186" stroke-width="1.53846"/>
<mask id="mask0_5017_39547" style="mask-type:alpha" maskUnits="userSpaceOnUse" x="1" y="1" width="46" height="46">
<rect x="1.6808" y="1.84976" width="44.6131" height="44.6024" rx="4" fill="#F1F4FF"/>
</mask>
<g mask="url(#mask0_5017_39547)">
<line x1="32.8077" y1="0.000152566" x2="32.8077" y2="50.0482" stroke="#B4B9C9"/>
<line x1="41.1154" y1="0.000152566" x2="41.1154" y2="50.0482" stroke="#B4B9C9"/>
<line x1="24.5" y1="0.000152566" x2="24.5" y2="50.0482" stroke="#B4B9C9"/>
<line x1="7.88461" y1="0.000152566" x2="7.88462" y2="50.0482" stroke="#B4B9C9"/>
<line x1="16.1923" y1="0.000152566" x2="16.1923" y2="50.0482" stroke="#B4B9C9"/>
<line x1="-1.02402" y1="16.2165" x2="49.0241" y2="16.2165" stroke="#B4B9C9"/>
<line x1="-1.02402" y1="7.90872" x2="49.0241" y2="7.90872" stroke="#B4B9C9"/>
<line x1="-1.02402" y1="24.5242" x2="49.0241" y2="24.5242" stroke="#B4B9C9"/>
<line x1="-1.02403" y1="41.1395" x2="49.024" y2="41.1395" stroke="#B4B9C9"/>
<line x1="-1.02402" y1="32.8319" x2="49.0241" y2="32.8319" stroke="#B4B9C9"/>
<rect x="1.41188" y="1.53473" width="45.0024" height="44.9916" rx="4" fill="url(#paint0_radial_5017_39547)"/>
</g>
<rect x="12.9672" y="27.1889" width="5.53323" height="6.69625" rx="1.385" fill="white" stroke="#4C5186" stroke-width="1.23"/>
<rect x="21.2334" y="20.1281" width="5.53323" height="13.757" rx="1.385" fill="white" stroke="#4C5186" stroke-width="1.23"/>
<rect x="29.4996" y="14.1151" width="5.53323" height="19.77" rx="1.385" fill="#B4B9C9" stroke="#4C5186" stroke-width="1.23"/>
<defs>
<radialGradient id="paint0_radial_5017_39547" cx="0" cy="0" r="1" gradientUnits="userSpaceOnUse" gradientTransform="translate(23.9131 24.0305) rotate(90) scale(22.4958 22.5012)">
<stop stop-color="#F6FAFD" stop-opacity="0.28"/>
<stop offset="1" stop-color="#F6FAFD"/>
</radialGradient>
</defs>
</svg>
