<svg width="48" height="48" viewBox="0 0 48 48" fill="none" xmlns="http://www.w3.org/2000/svg">
<g clip-path="url(#clip0_5110_50921)">
<g filter="url(#filter0_d_5110_50921)">
<rect y="9.15527e-05" width="48" height="48" rx="4" fill="#F1F3F7"/>
<rect x="0.769231" y="0.769322" width="46.4615" height="46.4615" rx="3.23077" stroke="#4C5186" stroke-width="1.53846"/>
</g>
<mask id="mask0_5110_50921" style="mask-type:alpha" maskUnits="userSpaceOnUse" x="1" y="1" width="46" height="46">
<rect x="1.68081" y="1.84976" width="44.6131" height="44.6024" rx="2" fill="#F1F4FF"/>
</mask>
<g mask="url(#mask0_5110_50921)">
<line x1="32.8077" y1="0.000152566" x2="32.8077" y2="50.0482" stroke="#B4B9C9"/>
<line x1="41.1154" y1="0.000152566" x2="41.1154" y2="50.0482" stroke="#B4B9C9"/>
<line x1="24.5" y1="0.000152566" x2="24.5" y2="50.0482" stroke="#B4B9C9"/>
<line x1="7.88461" y1="0.000152566" x2="7.88462" y2="50.0482" stroke="#B4B9C9"/>
<line x1="16.1923" y1="0.000152566" x2="16.1923" y2="50.0482" stroke="#B4B9C9"/>
<line x1="-1.02402" y1="16.2165" x2="49.0241" y2="16.2165" stroke="#B4B9C9"/>
<line x1="-1.02402" y1="7.90872" x2="49.0241" y2="7.90872" stroke="#B4B9C9"/>
<line x1="-1.02402" y1="24.5242" x2="49.0241" y2="24.5242" stroke="#B4B9C9"/>
<line x1="-1.02403" y1="41.1395" x2="49.024" y2="41.1395" stroke="#B4B9C9"/>
<line x1="-1.02402" y1="32.8319" x2="49.0241" y2="32.8319" stroke="#B4B9C9"/>
<rect x="1.41188" y="1.53473" width="45.0024" height="44.9916" rx="2" fill="url(#paint0_radial_5110_50921)"/>
</g>
<path d="M16.641 14.9863C20.7053 10.9221 27.2947 10.9221 31.359 14.9863C35.4232 19.0506 35.4232 25.64 31.359 29.7043L24.3074 36.7559C24.1376 36.9256 23.8624 36.9256 23.6926 36.7559L16.641 29.7043C12.5768 25.6401 12.5768 19.0506 16.641 14.9863Z" fill="white" stroke="#4C5186" stroke-width="1.23"/>
<circle cx="24.1875" cy="22.2188" r="3.53125" fill="#B4B9C9" stroke="#4C5186"/>
</g>
<defs>
<filter id="filter0_d_5110_50921" x="-4" y="-2.99991" width="56" height="56" filterUnits="userSpaceOnUse" color-interpolation-filters="sRGB">
<feFlood flood-opacity="0" result="BackgroundImageFix"/>
<feColorMatrix in="SourceAlpha" type="matrix" values="0 0 0 0 0 0 0 0 0 0 0 0 0 0 0 0 0 0 127 0" result="hardAlpha"/>
<feOffset dy="1"/>
<feGaussianBlur stdDeviation="2"/>
<feComposite in2="hardAlpha" operator="out"/>
<feColorMatrix type="matrix" values="0 0 0 0 0.305882 0 0 0 0 0.623529 0 0 0 0 1 0 0 0 0.2 0"/>
<feBlend mode="normal" in2="BackgroundImageFix" result="effect1_dropShadow_5110_50921"/>
<feBlend mode="normal" in="SourceGraphic" in2="effect1_dropShadow_5110_50921" result="shape"/>
</filter>
<radialGradient id="paint0_radial_5110_50921" cx="0" cy="0" r="1" gradientUnits="userSpaceOnUse" gradientTransform="translate(23.9131 24.0305) rotate(90) scale(22.4958 22.5012)">
<stop stop-color="#F6FAFD" stop-opacity="0.28"/>
<stop offset="1" stop-color="#F6FAFD"/>
</radialGradient>
<clipPath id="clip0_5110_50921">
<rect width="48" height="48" fill="white"/>
</clipPath>
</defs>
</svg>
