<svg width="48" height="48" viewBox="0 0 48 48" fill="none" xmlns="http://www.w3.org/2000/svg">
<rect x="0.769231" y="0.769322" width="46.4615" height="46.4615" rx="3.23077" fill="#F1F3F7" stroke="#4C5186" stroke-width="1.53846"/>
<mask id="mask0_4940_34369" style="mask-type:alpha" maskUnits="userSpaceOnUse" x="1" y="1" width="46" height="46">
<rect x="1.68082" y="1.84975" width="44.6131" height="44.6024" rx="4" fill="#E3EFFF"/>
</mask>
<g mask="url(#mask0_4940_34369)">
<line x1="32.8206" y1="0.000137307" x2="32.8206" y2="50.0482" stroke="#B4B9C9" stroke-width="1.02564"/>
<line x1="41.1282" y1="0.000137307" x2="41.1282" y2="50.0482" stroke="#B4B9C9" stroke-width="1.02564"/>
<line x1="24.5129" y1="0.000137307" x2="24.5129" y2="50.0482" stroke="#B4B9C9" stroke-width="1.02564"/>
<line x1="7.89746" y1="0.000137307" x2="7.89747" y2="50.0482" stroke="#B4B9C9" stroke-width="1.02564"/>
<line x1="16.2052" y1="0.000137307" x2="16.2052" y2="50.0482" stroke="#B4B9C9" stroke-width="1.02564"/>
<line x1="-1.02402" y1="16.2036" x2="49.0241" y2="16.2036" stroke="#B4B9C9" stroke-width="1.02564"/>
<line x1="-1.02402" y1="7.89592" x2="49.0241" y2="7.89591" stroke="#B4B9C9" stroke-width="1.02564"/>
<line x1="-1.02402" y1="24.5113" x2="49.0241" y2="24.5113" stroke="#B4B9C9" stroke-width="1.02564"/>
<line x1="-1.02402" y1="41.1267" x2="49.0241" y2="41.1267" stroke="#B4B9C9" stroke-width="1.02564"/>
<line x1="-1.02402" y1="32.8191" x2="49.0241" y2="32.8191" stroke="#B4B9C9" stroke-width="1.02564"/>
<rect x="1.41193" y="1.53473" width="45.0024" height="44.9916" rx="4" fill="url(#paint0_radial_4940_34369)"/>
</g>
<g filter="url(#filter0_d_4940_34369)">
<path d="M19.5 13.5001H15.4091C14.3547 13.5001 13.5 14.3548 13.5 15.4092C13.5 25.9528 22.0473 34.5001 32.5909 34.5001C33.6452 34.5001 34.5 33.6453 34.5 32.591V28.5L30.0001 25.5001L27.6666 27.8334C27.2614 28.2388 26.6557 28.3648 26.1465 28.1018C25.2829 27.6555 23.8814 26.8173 22.5 25.5001C21.0856 24.1514 20.2569 22.6982 19.841 21.819C19.6079 21.3261 19.7428 20.7573 20.1283 20.3718L22.5 18.0001L19.5 13.5001Z" fill="white" stroke="#4C5186" stroke-width="1.23077" stroke-linecap="round" stroke-linejoin="round"/>
<path d="M15.4091 13.5001H19.5L22.5 18.0001L20.1283 20.3718L15.4091 13.5001Z" fill="#B4B9C9" stroke="#4C5186" stroke-width="1.23077" stroke-linecap="round" stroke-linejoin="round"/>
<path d="M34.5 32.591C34.5 33.6453 33.6452 34.5001 32.5908 34.5001L27.6666 27.8334L30 25.5001L34.5 28.5V32.591Z" fill="#B4B9C9" stroke="#4C5186" stroke-width="1.23077" stroke-linecap="round" stroke-linejoin="round"/>
</g>
<defs>
<filter id="filter0_d_4940_34369" x="8.88461" y="9.8847" width="30.2308" height="30.2308" filterUnits="userSpaceOnUse" color-interpolation-filters="sRGB">
<feFlood flood-opacity="0" result="BackgroundImageFix"/>
<feColorMatrix in="SourceAlpha" type="matrix" values="0 0 0 0 0 0 0 0 0 0 0 0 0 0 0 0 0 0 127 0" result="hardAlpha"/>
<feOffset dy="1"/>
<feGaussianBlur stdDeviation="2"/>
<feComposite in2="hardAlpha" operator="out"/>
<feColorMatrix type="matrix" values="0 0 0 0 0.0969792 0 0 0 0 0.127894 0 0 0 0 0.2375 0 0 0 0.08 0"/>
<feBlend mode="normal" in2="BackgroundImageFix" result="effect1_dropShadow_4940_34369"/>
<feBlend mode="normal" in="SourceGraphic" in2="effect1_dropShadow_4940_34369" result="shape"/>
</filter>
<radialGradient id="paint0_radial_4940_34369" cx="0" cy="0" r="1" gradientUnits="userSpaceOnUse" gradientTransform="translate(23.9131 24.0305) rotate(90) scale(22.4958 22.5012)">
<stop stop-color="#F6FAFD" stop-opacity="0.28"/>
<stop offset="1" stop-color="#F6FAFD"/>
</radialGradient>
</defs>
</svg>
