<svg width="48" height="48" viewBox="0 0 48 48" fill="none" xmlns="http://www.w3.org/2000/svg">
<rect x="0.769231" y="0.769322" width="46.4615" height="46.4615" rx="3.23077" fill="#F1F3F7" stroke="#4C5186" stroke-width="1.53846"/>
<mask id="mask0_5017_39458" style="mask-type:alpha" maskUnits="userSpaceOnUse" x="1" y="1" width="46" height="46">
<rect x="1.68082" y="1.84976" width="44.6131" height="44.6024" rx="4" fill="#F1F4FF"/>
</mask>
<g mask="url(#mask0_5017_39458)">
<line x1="32.8206" y1="0.000152565" x2="32.8206" y2="50.0482" stroke="#B4B9C9" stroke-width="1.02564"/>
<line x1="41.1282" y1="0.000152565" x2="41.1282" y2="50.0482" stroke="#B4B9C9" stroke-width="1.02564"/>
<line x1="24.5129" y1="0.000152565" x2="24.5129" y2="50.0482" stroke="#B4B9C9" stroke-width="1.02564"/>
<line x1="7.89746" y1="0.000152565" x2="7.89747" y2="50.0482" stroke="#B4B9C9" stroke-width="1.02564"/>
<line x1="16.2052" y1="0.000152565" x2="16.2052" y2="50.0482" stroke="#B4B9C9" stroke-width="1.02564"/>
<line x1="-1.02402" y1="16.2036" x2="49.0241" y2="16.2036" stroke="#B4B9C9" stroke-width="1.02564"/>
<line x1="-1.02402" y1="7.8959" x2="49.0241" y2="7.8959" stroke="#B4B9C9" stroke-width="1.02564"/>
<line x1="-1.02402" y1="24.5113" x2="49.0241" y2="24.5113" stroke="#B4B9C9" stroke-width="1.02564"/>
<line x1="-1.02402" y1="41.1267" x2="49.0241" y2="41.1267" stroke="#B4B9C9" stroke-width="1.02564"/>
<line x1="-1.02402" y1="32.8191" x2="49.0241" y2="32.8191" stroke="#B4B9C9" stroke-width="1.02564"/>
<rect x="1.4119" y="1.53473" width="45.0024" height="44.9916" rx="4" fill="url(#paint0_radial_5017_39458)"/>
</g>
<path d="M35.385 24.0001C35.385 30.2879 30.2878 35.3851 24 35.3851C17.7122 35.3851 12.615 30.2879 12.615 24.0001C12.615 17.7123 17.7122 12.6151 24 12.6151C30.2878 12.6151 35.385 17.7123 35.385 24.0001Z" fill="white" stroke="#4C5186" stroke-width="1.23"/>
<mask id="path-15-inside-1_5017_39458" fill="white">
<path d="M29.1456 25.1975C29.974 25.1975 30.6618 25.8767 30.4838 26.6858C30.3965 27.0823 30.2744 27.4712 30.1183 27.8481C29.7703 28.6884 29.2601 29.452 28.6169 30.0951C27.9737 30.7383 27.2102 31.2485 26.3698 31.5966C25.5295 31.9447 24.6288 32.1238 23.7193 32.1238C22.8097 32.1238 21.909 31.9446 21.0687 31.5966C20.2283 31.2485 19.4648 30.7383 18.8216 30.0951C18.1785 29.452 17.6683 28.6884 17.3202 27.8481C17.1641 27.4712 17.042 27.0823 16.9548 26.6858C16.7768 25.8767 17.4645 25.1975 18.293 25.1975L23.7193 25.1975H29.1456Z"/>
</mask>
<path d="M29.1456 25.1975C29.974 25.1975 30.6618 25.8767 30.4838 26.6858C30.3965 27.0823 30.2744 27.4712 30.1183 27.8481C29.7703 28.6884 29.2601 29.452 28.6169 30.0951C27.9737 30.7383 27.2102 31.2485 26.3698 31.5966C25.5295 31.9447 24.6288 32.1238 23.7193 32.1238C22.8097 32.1238 21.909 31.9446 21.0687 31.5966C20.2283 31.2485 19.4648 30.7383 18.8216 30.0951C18.1785 29.452 17.6683 28.6884 17.3202 27.8481C17.1641 27.4712 17.042 27.0823 16.9548 26.6858C16.7768 25.8767 17.4645 25.1975 18.293 25.1975L23.7193 25.1975H29.1456Z" fill="#B4B9C9" stroke="#4C5186" stroke-width="2.46" mask="url(#path-15-inside-1_5017_39458)"/>
<defs>
<radialGradient id="paint0_radial_5017_39458" cx="0" cy="0" r="1" gradientUnits="userSpaceOnUse" gradientTransform="translate(23.9131 24.0305) rotate(90) scale(22.4958 22.5012)">
<stop stop-color="#F6FAFD" stop-opacity="0.28"/>
<stop offset="1" stop-color="#F6FAFD"/>
</radialGradient>
</defs>
</svg>
